<svg xmlns="http://www.w3.org/2000/svg" x="0px" y="0px"
	 viewBox="0 0 1397.981812 864" preserveAspectRatio='xMidYMid meet'>
<g id="Layer_3">
	<rect fill="#10312B" width="1397.981812" height="864"/>
</g>
<g id="Layer_1">
	<path fill="#966828" d="M978.145813,652.751831c0,0,77.549988-7.990234,95.973938-22.027832
		c0,0-53.744141-8.614563-53.195618-17.228516c0.548462-8.614014,42.86554-27.129639,42.86554-27.129639
		s-75.926147,22.996765-98.70166,14.31604c-22.775452-8.680725-20.134338,48.887207-20.134338,48.887207L978.145813,652.751831z"/>
	<path fill="#966828" d="M418.316162,652.731079c0,0-76.943329-11.042358-94.454132-25.790466
		c0,0,54.220154-6.482239,54.218018-15.107483s-41.091431-28.789246-41.091431-28.789246s74.370941,25.966675,97.66684,18.195618
		s17.011444,49.623108,17.011444,49.623108L418.316162,652.731079z"/>
	<path fill="#966828" stroke="#10312B" stroke-width="2.6784" stroke-miterlimit="10" d="M968.319702,679.708862
		c-182.049194,19.059937-361.428406,18.98999-543.447632-0.209961c-9.399994-1-16.359924-9.079956-15.429932-17.879944
		c1.109985-10.689941,2.23999-21.379883,3.390015-32.059814c0.96994-8.790039,9.269897-15.109924,18.419891-14.129944
		c33.969818,3.589905,67.839661,6.499939,101.639587,8.729919c45.179749,42.389832,103.849487,65.649719,166.099243,65.649719
		c62.34967,0,121.099426-23.329895,166.309265-65.85968c32.1698-2.150024,64.389709-4.920044,96.719604-8.319946
		c9.169922-0.970032,17.459839,5.369934,18.409851,14.159912c1.140015,10.689941,2.25,21.369873,3.340027,32.069824
		C984.679626,670.648926,977.709595,678.718872,968.319702,679.708862z"/>
	
		<text transform="matrix(0.998626 0.05225 -0.05225 0.998626 460.351654 665.007629)" fill="#FFFFFF" font-family="'Baltica-Bold'" font-size="48px" letter-spacing="1">20</text>
	
		<text transform="matrix(0.998626 -0.05234 0.05234 0.998626 884.637939 667.80896)" fill="#FFFFFF" font-family="'Baltica-Bold'" font-size="48px" letter-spacing="1">20</text>
	<g>
		<g>
			<path fill="#131E29" d="M698.990906,691.150391c-65.240723,0-126.583496-25.407227-172.728027-71.541992
				c-46.135284-46.144531-71.542511-107.487305-71.542511-172.728516v-14c0-5.009766-1.331055-9.946289-3.848633-14.274902
				c-5.069824-8.727051-14.492676-14.15332-24.591309-14.163086h-28.396484v98.835449
				c0,10.625977,3.128906,20.908203,9.048828,29.734375l9.175293,13.679688h-69.057617V172.849121h95.47168
				c55.036133,0.010254,99.811066,44.785645,99.811066,99.811523v31.959961c0,16.911621-4.342285,33.672852-12.558105,48.471191
				c-8.602539,15.489746-21.19632,28.412109-36.479523,37.449219c0.535645,0.841797,1.050293,1.6875,1.536621,2.525391
				c7.020508,12.07666,10.731445,25.84375,10.731445,39.813477v14c0,51.587891,20.14212,100.141602,56.715363,136.71875
				c36.574707,36.578125,85.126465,56.720703,136.711426,56.71875c51.412598-0.023438,99.903809-20.511719,136.629395-57.691406
				c36.626953-37.081055,56.798828-85.884766,56.798828-137.420898v-99.513184
				c-13.243164-4.686035-25.665039-11.048828-36.936523-18.921387c-2.202148-1.541992-4.46875-3.225098-6.739258-5.003906
				l-0.793945-0.624023l-16.898438-15.595703l-41.556641-38.842285l34.722656-37.140625l41.479492,38.776367l15.22168,14.044434
				c1.195312,0.924316,2.442383,1.84082,3.709961,2.725098c2.500977,1.749023,5.114258,3.399414,7.791016,4.922852v-73.759766
				c0-10.625977-3.128906-20.907715-9.048828-29.733398l-9.175781-13.680176h87.291016l-9.175781,13.680176
				c-5.918945,8.824707-9.047852,19.106445-9.047852,29.73291v84.806152h134.746033v-84.807617
				c0-10.632812-3.131836-20.918457-9.056641-29.745117l-9.177734-13.676758h87.302734l-9.176758,13.680176
				c-5.918945,8.825195-9.047852,19.106934-9.047852,29.733398v287.014648c0,10.626953,3.128906,20.90918,9.047852,29.734375
				l9.176758,13.679688h-87.302734l9.177734-13.676758c5.924805-8.827148,9.056641-19.112305,9.056641-29.745117V351.912109
				H943.261414v94.967773c0,65.241211-25.407227,126.583984-71.541992,172.728516
				C825.57489,665.743164,764.232117,691.150391,698.990906,691.150391z M442.522125,353.608398
				c17.770508-0.009766,34.17334-9.665527,42.806641-25.199707c4.037109-7.256836,6.171387-15.482422,6.171387-23.788086v-31.959961
				c0-27.000977-21.967285-48.967773-48.968262-48.967773h-44.647949v129.915527H442.522125z"/>
			<path fill="#FFFFFF" d="M1144.55896,174.19104l-7.774292,11.59079c-6.046875,9.015335-9.275635,19.625443-9.275635,30.480881
				v287.015137c0,10.855347,3.22876,21.465454,9.275635,30.480774l7.774292,11.590759h-82.269775l7.776001-11.586548
				c6.052246-9.017761,9.283936-19.63269,9.283936-30.493103V350.570282H941.9198v96.30954
				c0,64.889679-25.269897,125.889465-71.149658,171.779236c-45.889771,45.879761-106.889526,71.14978-171.779236,71.14978
				s-125.889465-25.27002-171.779297-71.14978c-45.8797-45.889771-71.149719-106.889557-71.149719-171.779236v-13.999878
				c0-5.23999-1.389984-10.410004-4.029999-14.950012c-5.309875-9.139893-15.179871-14.819885-25.749878-14.829895h-29.739777
				v100.177795c0,10.855347,3.22879,21.465454,9.275574,30.480774l7.774323,11.590759h-65.199677V174.19104h94.129578
				c54.299744,0.01001,98.469543,44.179794,98.469543,98.469543v31.9599c0,16.68988-4.289978,33.229797-12.389893,47.819794
				c-8.880005,15.989899-21.860016,28.869873-37.19989,37.64978c0.790009,1.190002,1.549988,2.410004,2.269989,3.649994
				c6.899994,11.869995,10.549896,25.409882,10.549896,39.139893v13.999878
				c0,107.402649,87.365234,194.779114,194.769104,194.779114c0.026184,0,0.062012,0,0.088257,0
				c107.078918-0.047668,194.68103-89.374756,194.68103-196.453674V344.740265
				c-13.509949-4.690002-26.069946-11.079895-37.509827-19.069885c-2.269958-1.589996-4.51001-3.259979-6.679993-4.959991
				l-0.75-0.590027l-16.859985-15.559875l-40.569763-37.919861l32.889893-35.179901l40.499756,37.859894l15.27002,14.089966
				c1.23999,0.960022,2.519958,1.900024,3.809998,2.799927c3.159851,2.209991,6.469849,4.25,9.899902,6.099976V216.27272
				c0-10.855453-3.228821-21.465561-9.275574-30.480896l-7.774475-11.590775h82.259705l-7.774353,11.590775
				c-6.046753,9.015335-9.275574,19.625443-9.275574,30.480774v86.147903h137.429321v-86.149673
				c0-10.86055-3.231689-21.475327-9.283936-30.493225l-7.776001-11.586563H1144.55896 M396.542236,354.950287h45.979797
				c18.249878-0.01001,35.109863-9.930023,43.979767-25.889893c4.149994-7.459991,6.339996-15.910004,6.339996-24.439911v-31.9599
				c0-27.785309-22.524445-50.309753-50.309784-50.309753h-45.989777V354.950287 M1149.590942,171.50705h-5.031982h-82.269775
				h-5.033569l2.804932,4.179657l7.776001,11.586563c5.775635,8.605881,8.828613,18.632996,8.828613,28.997559v83.465683h-132.06134
				v-83.463913c0-10.359222,3.05011-20.382324,8.820557-28.985657l7.774353-11.590775l2.803101-4.179108h-5.032104h-82.259705
				h-5.032104l2.803101,4.179108l7.774475,11.590775c5.770447,8.603333,8.820557,18.626434,8.820557,28.985779v71.4207
				c-1.941895-1.166351-3.84082-2.397705-5.677673-3.682373c-1.231934-0.859436-2.446655-1.750977-3.614624-2.652832
				l-15.183472-14.010162l-40.487-37.848007l-1.960571-1.832886l-1.833008,1.960556l-32.889893,35.179901l-1.83313,1.960876
				l1.960999,1.832886l40.569824,37.919891l16.872437,15.571564l0.077759,0.071655l0.08313,0.06543l0.75,0.590027
				c2.289551,1.793549,4.575745,3.491089,6.799683,5.048767c11.118408,7.765533,23.343018,14.073944,36.36554,18.76889v98.567657
				c0,25.818024-5.097107,50.990997-15.149902,74.819763c-9.716248,23.03125-23.598633,43.775818-41.261536,61.657593
				c-17.693115,17.912415-38.235779,31.994324-61.057251,41.854431c-23.682983,10.232361-48.758301,15.426453-74.529541,15.437866
				h-0.087036c-105.916077,0-192.085114-86.173523-192.085114-192.095093v-13.999878
				c0-14.205658-3.773773-28.206451-10.913452-40.48877c-0.271118-0.46698-0.550079-0.93512-0.835693-1.402466
				c14.957184-9.119537,27.295868-21.947296,35.791595-37.245331c8.326477-14.998108,12.727478-31.984344,12.727478-49.122894
				v-31.9599c0-55.765976-45.377136-101.143311-101.153137-101.153534h-94.130005h-2.68399v2.68399v371.158325v2.684021h2.68399
				h65.199677h5.032104l-2.803101-4.179138l-7.774353-11.590759c-5.770447-8.603333-8.820557-18.626404-8.820557-28.985657
				v-97.493774h27.055786c9.620331,0.009094,18.598785,5.179779,23.429108,13.49411
				c2.398987,4.125671,3.666779,8.828674,3.666779,13.601776v13.999878c0,65.598694,25.547211,127.278381,71.935577,173.67688
				c46.399109,46.388916,108.078796,71.936096,173.677429,71.936096s127.278381-25.54718,173.676941-71.935608
				c46.388733-46.398926,71.935974-108.078552,71.935974-173.677368v-93.625549h132.06134v150.015442
				c0,10.364563-3.052979,20.391663-8.828491,28.997437l-7.776123,11.586609l-2.804932,4.179626h5.033569h82.269775h5.031982
				l-2.803101-4.179138l-7.77417-11.590759c-5.770508-8.603333-8.820679-18.626404-8.820679-28.985657V216.262711
				c0-10.359329,3.050171-20.382431,8.820679-28.985764l7.77417-11.59079L1149.590942,171.50705L1149.590942,171.50705z
				 M399.226227,225.034821h43.305786c26.260895,0,47.625763,21.364899,47.625763,47.625763v31.9599
				c0,8.077332-2.075317,16.077332-6.001434,23.135132c-8.39743,15.10965-24.351105,24.501221-41.635773,24.510651h-43.294342
				V225.034821L399.226227,225.034821z"/>
		</g>
		<g>
			<path fill="#131E29" d="M697.576843,613.235352c-43.472168-0.363281-84.528809-17.53418-115.606934-48.349609
				c-31.080078-30.816406-48.594238-71.725586-49.316895-115.189453c-0.558594-33.602051,8.89502-66.151855,27.338379-94.130859
				c17.966309-27.254883,43.23877-48.495605,73.085938-61.42627l1.228027-0.531738l0.535645,1.226074
				c6.675293,15.283691,17.035156,28.945312,29.958984,39.507812l1.924316,1.572754l-2.370117,0.746094
				c-49.514648,15.595703-82.740234,62.733887-80.79834,114.631836c1.105469,29.540039,13.462402,57.283203,34.794922,78.119141
				c21.328125,20.832031,49.356934,32.541992,78.922852,32.973633c0.570801,0.007812,1.148438,0.012695,1.717285,0.012695
				c63.696289,0,115.517578-51.821289,115.517578-115.517578c0-38.385742-18.983398-74.165039-50.78125-95.708984
				c-8.165039-5.533203-17.00293-9.992676-26.275391-13.258789h-0.087891l-0.219727-0.104004
				c0,0-0.694336-0.245605-0.723633-0.255859h-0.033203l-0.132812-0.05127l-0.05957-0.018066l-0.050781-0.025391
				c-0.118164-0.046387-0.251953-0.091797-0.395508-0.141602c0,0-0.316406-0.112793-0.341797-0.123047
				c-0.327148-0.115234-0.689453-0.239258-1.080078-0.372559l-1.904297-0.67334
				c-0.273438-0.094727-0.555664-0.192383-0.842773-0.299805c-1.705078-0.591309-3.729492-1.303711-5.864258-2.054199
				c0,0-5.041016-1.770508-6.132812-2.151855l-1.786133-0.614746l-11.759766-4.129883
				c-1.366211-0.485352-2.742188-1.01123-4.09375-1.563965c-1.479492-0.612305-2.937988-1.269531-4.341797-1.956543
				c-0.352051-0.166016-0.710938-0.340332-1.080566-0.525391c-0.983398-0.501953-1.956543-1.018555-2.909668-1.545898
				c-0.263672-0.143555-0.529785-0.294922-0.794922-0.446289l-0.556641-0.314453
				c-0.419434-0.258789-0.781738-0.474609-1.144531-0.69043c-0.368164-0.220703-0.730469-0.438477-1.08252-0.666016
				c-0.814453-0.506836-1.628906-1.04541-2.442383-1.594727l-0.300293-0.205078
				c-0.233887-0.159668-0.470215-0.320801-0.70166-0.486816c-0.56543-0.396973-1.132812-0.8125-1.700195-1.228027
				c-0.322266-0.241699-0.596191-0.447266-0.86084-0.652832c-1.366211-1.045898-2.610352-2.057617-3.79541-3.085938
				l-0.097656-0.085938c-0.40332-0.356445-0.79834-0.705078-1.193359-1.0625l-0.083008-0.081055
				c-0.405762-0.366699-0.833984-0.764648-1.261719-1.172363c-0.43457-0.40332-0.869629-0.828613-1.294922-1.26416
				c-0.94873-0.9375-1.800293-1.825684-2.586914-2.699707c-0.357422-0.38623-0.714844-0.784668-1.072754-1.193848
				c-0.730469-0.825195-1.47998-1.718262-2.287109-2.724121c-0.376465-0.467773-0.743652-0.9375-1.101074-1.406738
				c-0.729492-0.956055-1.395996-1.865723-2.03418-2.777344l-0.083984-0.115723
				c-0.333496-0.485352-0.657227-0.970703-0.980469-1.456055c-0.330566-0.504883-0.653809-1.000488-0.967285-1.496094
				c-0.316406-0.499512-0.631836-1.008789-0.937012-1.518066c-0.505371-0.838867-1.025879-1.75-1.63623-2.865723
				c-0.053711-0.091309-0.106445-0.188477-0.150879-0.286133c-0.273438-0.500488-0.538086-1.010254-0.802734-1.519531
				c-0.219238-0.421875-0.425781-0.844238-0.634766-1.271973l-0.15918-0.325195
				c-5.214844-10.817383-7.856934-22.422363-7.856934-34.500977c0-43.705078,35.551758-79.261719,79.250977-79.261719
				c19.647461,0,38.511719,7.253906,53.118164,20.425293c0.1875,0.175293,0.862305,0.790039,1.030273,0.947266l18.017578,16.855469
				l-34.711914,37.140137l-18.429688-17.21582c-5.202148-4.70752-11.963867-7.308594-19.024414-7.308594
				c-15.664062,0-28.408203,12.748535-28.408203,28.417969c0,11.534668,6.885742,21.838379,17.541992,26.25
				c0.488281,0.200684,0.989258,0.393555,1.499023,0.57666l0.524414,0.1875c0.266602,0.085938,0.533203,0.175293,0.802734,0.270996
				l29.834961,10.468262c9.491211,3.323242,18.713867,7.532715,27.412109,12.511719
				c51.741211,29.558105,83.884766,84.929199,83.884766,144.503906c0,91.732422-74.628906,166.361328-166.361328,166.361328
				C698.51825,613.241211,698.050476,613.239258,697.576843,613.235352z"/>
			<path fill="#FFFFFF" d="M732.260803,174.191055c19.329834,0,37.869812,7.139938,52.219727,20.07988
				c0.340027,0.319992,0.679993,0.619995,1.01001,0.929993l17.039917,15.939941l-32.879822,35.179871l-17.449951-16.299942
				c-5.469971-4.949936-12.559937-7.669998-19.93988-7.669998c-16.399963,0-29.749878,13.349945-29.749878,29.759872
				c0,12.069992,7.2099,22.869949,18.369873,27.489883c0.51001,0.210052,1.029968,0.410004,1.559998,0.600006l-0.01001,0.019989
				c0.450012,0.139984,0.890015,0.28006,1.340027,0.440002l29.839844,10.470001
				c9.539978,3.339935,18.629944,7.509949,27.18988,12.409943c50.729736,28.979797,83.209656,83.439606,83.209656,143.339355
				c0,90.987823-74.032166,165.019257-165.019348,165.019257c-0.468872,0-0.932983-0.001953-1.402771-0.005859
				c-89.152893-0.744873-162.111145-73.075989-163.593262-162.219757
				c-1.146545-68.966553,40.253601-128.585175,99.616333-154.302948c6.77002,15.499878,17.150024,29.229797,30.339966,40.009827
				c-48.712952,15.342926-83.762817,61.797729-81.736084,115.96167c2.3125,61.800171,53.202087,111.482056,115.038879,112.384644
				c0.577332,0.008423,1.161499,0.012695,1.736938,0.012695c64.443359,0,116.859558-52.417175,116.859558-116.859528
				c0-39.369873-19.799927-75.429749-51.369812-96.81955c-8.189941-5.550049-17.169861-10.119934-26.799866-13.489929
				c0,0-0.01001,0-0.030029-0.01001c-0.019958-0.010071-0.049988-0.02005-0.089966-0.03006
				c-0.049988-0.019989-0.109985-0.039948-0.179993-0.059937c-0.109985-0.040009-0.25-0.089996-0.420044-0.149994
				c-0.079956-0.029999-0.169983-0.060059-0.269958-0.089996c-0.02002-0.01001-0.030029-0.020081-0.049988-0.020081
				c-0.180054-0.070007-0.390015-0.139923-0.619995-0.21994c-0.040039-0.019989-0.090027-0.03006-0.130005-0.049988
				c-0.340027-0.119995-0.720032-0.25-1.130005-0.390015c-0.470032-0.169983-0.98999-0.350067-1.549988-0.549988
				c-0.369995-0.130005-0.759949-0.26001-1.159973-0.410065c-2.219971-0.769928-4.909973-1.71994-7.700012-2.700012
				c-0.349976-0.119995-0.690002-0.23999-1.029968-0.359924c-1.700012-0.600006-3.420044-1.200073-5.079956-1.779999v0.009949
				l-11.76001-4.129883c-1.349915-0.480072-2.709961-1-4.029907-1.54007c-1.450012-0.599945-2.870056-1.240021-4.26001-1.920013
				c-0.360046-0.169922-0.710022-0.339966-1.070007-0.519989c-0.960022-0.48999-1.919922-1-2.859924-1.519928
				c-0.460083-0.25-0.900085-0.51001-1.350098-0.76001c-0.369995-0.230042-0.73999-0.450012-1.109985-0.670044
				c-0.349915-0.209961-0.700012-0.420013-1.039917-0.639954c-0.820007-0.51001-1.619995-1.039978-2.420105-1.580017
				c-0.319946-0.220032-0.649902-0.440002-0.96991-0.669983c-0.570007-0.399994-1.130005-0.809998-1.690002-1.220001
				c-0.28009-0.209991-0.559998-0.420013-0.830017-0.629974c-1.279968-0.980042-2.529968-1.990021-3.73999-3.040039
				c-0.429993-0.380005-0.849915-0.75-1.27002-1.130005c-0.019897-0.019958-0.029968-0.029968-0.049988-0.049927
				c-0.429993-0.390045-0.849976-0.780029-1.269897-1.179993c-0.430115-0.400055-0.850098-0.809998-1.26001-1.230042
				c-0.880005-0.869995-1.730103-1.75-2.55011-2.659973c-0.359924-0.390045-0.7099-0.780029-1.059998-1.179993
				c-0.769897-0.869995-1.519897-1.769989-2.25-2.679993c-0.369995-0.459991-0.729919-0.919983-1.079895-1.380005
				c-0.710022-0.929993-1.400024-1.869995-2.070007-2.829987c-0.01001-0.01001-0.01001-0.01001-0.01001-0.01001
				c-0.330078-0.480011-0.650024-0.95993-0.96991-1.440002c-0.320007-0.48999-0.640076-0.980011-0.950012-1.46994
				c-0.309998-0.48999-0.619995-0.98999-0.920105-1.48999c-0.559998-0.930054-1.089966-1.869995-1.609985-2.820007
				c-0.039978-0.070007-0.089905-0.149994-0.119995-0.230042c-0.279907-0.509949-0.549988-1.029968-0.820007-1.549957
				c-0.269897-0.519989-0.519897-1.040009-0.779907-1.569977c-4.98999-10.349976-7.720032-21.889893-7.720032-33.909897
				C654.351074,209.140869,689.300903,174.191055,732.260803,174.191055 M732.260803,171.50705
				c-44.439514,0-80.593689,36.15863-80.593689,80.603622c0,12.282883,2.686951,24.083939,7.986267,35.075485l0.164368,0.33606
				c0.214294,0.438538,0.426208,0.871704,0.651062,1.304962c0.260986,0.502563,0.522156,1.004852,0.791321,1.498749
				c0.07373,0.158142,0.144714,0.280212,0.189392,0.357056c0.605164,1.105438,1.134277,2.031921,1.6521,2.89209
				c0.308899,0.514648,0.630066,1.032715,0.951294,1.540466c0.31488,0.497681,0.639893,0.995636,0.965027,1.493469
				c0.346863,0.520813,0.674011,1.011475,1.011475,1.502228l0.139526,0.202942l0.018005,0.018005
				c0.629272,0.895721,1.285339,1.789948,2.000671,2.72699c0.361816,0.475555,0.736633,0.954559,1.121887,1.433563
				c0.819885,1.021881,1.583191,1.930939,2.331543,2.776489c0.355896,0.406708,0.721497,0.814087,1.097412,1.221436
				c0.785461,0.871887,1.65448,1.778503,2.635559,2.748474c0.40332,0.413849,0.858459,0.858215,1.31897,1.28656
				c0.397339,0.378693,0.815979,0.767883,1.244812,1.157471l0.007141,0.007202l0.095459,0.090515
				c0.385437,0.348663,0.770813,0.689148,1.163635,1.036224l0.129639,0.114502
				c1.223145,1.061615,2.48822,2.089996,3.885681,3.159943c0.266052,0.207062,0.558655,0.426697,0.85144,0.64624
				c0.599121,0.438843,1.173645,0.859314,1.758423,1.269653c0.219788,0.158173,0.469604,0.328735,0.717285,0.497559
				l0.273315,0.186798c0.69635,0.470123,1.59259,1.068695,2.523621,1.647736c0.324768,0.210693,0.700623,0.436829,1.07666,0.662384
				c0.372681,0.22171,0.723145,0.429962,1.073547,0.647797l0.056091,0.034912l0.057739,0.032043
				c0.181396,0.10083,0.361145,0.203369,0.541382,0.306122c0.273865,0.156189,0.548706,0.312775,0.830627,0.465942
				c0.943298,0.521881,1.932007,1.047333,2.921204,1.552246c0.398254,0.199188,0.766052,0.37796,1.14447,0.556549
				c1.400757,0.685516,2.88562,1.354767,4.379639,1.972961c1.374146,0.562256,2.769409,1.095428,4.156738,1.588806
				l11.77002,4.133362l3.573303,1.254883v-0.014923c0.501221,0.175903,1.002808,0.352325,1.502625,0.528748
				c0.35968,0.126862,0.701294,0.247314,1.052795,0.367859l2.10907,0.741577c2.006409,0.70578,3.906494,1.374084,5.550903,1.94455
				c0.293701,0.109558,0.582214,0.209656,0.862244,0.306519l0.318542,0.110748l0.700989,0.24823
				c0.289734,0.102142,0.565613,0.199371,0.825745,0.293518c0.419128,0.143524,0.772156,0.264252,1.088745,0.375549
				c0.002563,0.001007,0.005188,0.002014,0.007751,0.003021l0.031067,0.015533l0.163635,0.056885l0.164673,0.056946
				c0.106812,0.036804,0.207153,0.070831,0.298889,0.104736l0.095764,0.047882l0.126709,0.037933l0.312317,0.121429h0.050415
				l0.275757,0.09845l0.088928,0.032379l0.057434,0.016418l0.401855,0.20282l0.18988,0.002838
				c9.091309,3.220581,17.760376,7.604858,25.773315,13.034973c31.428406,21.293945,50.191528,56.657562,50.191528,94.597687
				c0,62.956573-51.218933,114.175507-114.175598,114.175507c-0.562439,0-1.133423-0.004089-1.697693-0.01239
				c-29.220764-0.426514-56.923462-12.001282-78.004944-32.592102c-21.084961-20.594238-33.298645-48.014313-34.391052-77.209198
				c-0.958618-25.617981,6.419861-50.124939,21.337708-70.871429c14.38501-20.005676,35.168762-35.074188,58.522522-42.429871
				l4.740479-1.493073l-3.848267-3.145111c-12.759949-10.42865-22.988159-23.916626-29.578796-39.005951l-1.071167-2.452301
				l-2.455444,1.063812c-30.087341,13.03476-55.56311,34.445953-73.673096,61.918732
				c-18.592957,28.205505-28.122986,61.018524-27.559875,94.891632c0.728516,43.816559,18.38385,85.055695,49.713867,116.120758
				c31.328186,31.063171,72.716431,48.372131,116.540588,48.738281c0.477295,0.004028,0.948792,0.005981,1.425171,0.005981
				c92.471924,0,167.703308-75.231384,167.703308-167.703278c0-60.055664-32.402344-115.873108-84.562317-145.669922
				c-8.767212-5.018646-18.06543-9.262573-27.634277-12.61264l-29.838135-10.46936
				c-0.300415-0.10675-0.600464-0.206573-0.903259-0.303711l-0.409607-0.150208
				c-0.489685-0.175598-0.975403-0.362335-1.443604-0.555206c-10.147949-4.201019-16.708069-14.018005-16.708069-25.008133
				c0-14.929688,12.141724-27.075867,27.065918-27.075867c6.725891,0,13.167725,2.477493,18.138916,6.97612l17.418762,16.271194
				l1.960815,1.83168l1.832153-1.960373l32.879883-35.179871l1.831909-1.960007l-1.959229-1.832748l-17.039917-15.939926
				c-0.167053-0.156952-0.340698-0.315323-0.515686-0.474762c-0.161926-0.147491-0.325195-0.296051-0.488342-0.449677
				l-0.020813-0.019638l-0.021301-0.019119C771.424377,178.883545,752.240662,171.50705,732.260803,171.50705L732.260803,171.50705z
				"/>
		</g>
		<g>
			<path fill="#131E29" d="M569.409851,216.272461c0-10.625977-3.128906-20.907715-9.04834-29.73291l-9.17627-13.680176h87.291992
				l-9.175781,13.680176c-5.919434,8.824707-9.04834,19.106445-9.04834,29.73291v53.92334l-0.788086,0.357422
				c-17.36084,7.861816-33.452637,18.243164-47.828125,30.855957l-2.227051,1.954102V216.272461z"/>
			<path fill="#FFFFFF" d="M635.961121,174.201019l-7.774292,11.590851c-6.046875,9.015289-9.275574,19.625397-9.275574,30.480789
				v53.057938c-17.599915,7.970001-33.809875,18.47995-48.15979,31.069855v-84.127792
				c0-10.855392-3.22876-21.4655-9.275574-30.480789l-7.774353-11.590851H635.961121 M640.993164,171.517014h-5.032043h-82.259583
				h-5.032043l2.80304,4.179092l7.774353,11.590851c5.770508,8.603317,8.820618,18.626404,8.820618,28.985703v84.127792v5.925415
				l4.454102-3.907837c14.2771-12.526062,30.257324-22.835632,47.496826-30.642456l1.576782-0.71405v-1.730927v-53.057938
				c0-10.359329,3.050171-20.382431,8.820618-28.985703l7.774353-11.590881L640.993164,171.517014L640.993164,171.517014z"/>
		</g>
		<g>
			<path fill="#131E29" d="M250.907379,546.691406l9.180664-13.692383c5.916016-8.823242,9.042969-19.102539,9.042969-29.725586
				V216.26709c0-10.623535-3.126953-20.901855-9.042969-29.724609l-9.180664-13.693359h69.066895v373.842285H250.907379z"/>
			<path fill="#FFFFFF" d="M318.632538,174.191071v371.158295h-65.209671l7.779831-11.603516
				c6.043335-9.013611,9.27005-19.620605,9.27005-30.472626V216.267227c0-10.85199-3.226715-21.458939-9.27005-30.472519
				l-7.779831-11.603638H318.632538 M321.316559,171.50708h-2.684021h-65.209671h-5.030945l2.801636,4.17868l7.779831,11.603638
				c5.767059,8.601517,8.815369,18.621887,8.815369,28.977829v287.005981c0,10.355927-3.048309,20.376373-8.815369,28.977875
				l-7.779831,11.603638l-2.801697,4.17865h5.031006h65.209671h2.684021v-2.684021V174.191071V171.50708L321.316559,171.50708z"/>
		</g>
	</g>
	<g>
		<polygon fill="#FFFFFF" points="453.102631,726.604736 453.102631,720.688599 421.580811,720.688599 421.580811,788.169312 
			427.959137,788.169312 427.959137,756.924866 451.068909,756.924866 451.068909,751.008728 427.959137,751.008728 
			427.959137,726.604736 		"/>
		<path fill="#FFFFFF" d="M539.905457,754.243896c0,16.916382-12.109558,28.841064-27.084717,28.841064
			c-14.975189,0-27.177185-12.294434-27.177185-28.748657c0-16.269287,11.462463-28.563721,26.99231-28.563721
			C528.442993,725.772583,539.905457,738.067017,539.905457,754.243896z M546.653564,754.336304
			c0-19.597107-14.328125-34.757141-34.0177-34.757141c-19.04248,0-33.740356,15.067566-33.740356,34.757141
			c0,19.966919,14.975159,34.942078,33.925232,34.942078C531.678406,789.278381,546.653564,774.02594,546.653564,754.336304z"/>
		<path fill="#FFFFFF" d="M634.470886,754.243896c0,16.916382-12.109558,28.841064-27.084717,28.841064
			s-27.177185-12.294434-27.177185-28.748657c0-16.269287,11.462463-28.563721,26.992371-28.563721
			C623.008423,725.772583,634.470886,738.067017,634.470886,754.243896z M641.218994,754.336304
			c0-19.597107-14.328064-34.757141-34.017639-34.757141c-19.042542,0-33.740417,15.067566-33.740417,34.757141
			c0,19.966919,14.975159,34.942078,33.925232,34.942078C626.243835,789.278381,641.218994,774.02594,641.218994,754.336304z"/>
		<polygon fill="#FFFFFF" points="699.362122,726.604736 699.362122,720.688599 661.461975,720.688599 661.461975,726.604736 
			677.084229,726.604736 677.084229,788.169312 683.554993,788.169312 683.554993,726.604736 		"/>
		<path fill="#FFFFFF" d="M763.328552,769.311157c0,8.874146-6.748047,12.941467-15.899536,12.941467h-12.84906V756.73938h12.756653
			C755.471252,756.73938,763.328552,760.806702,763.328552,769.311157z M758.614197,737.974182
			c0,7.672485-5.453918,12.84906-14.420532,12.84906h-9.613708v-24.219055h9.521301
			C753.345154,726.604187,758.614197,730.579041,758.614197,737.974182z M770.076721,769.680908
			c0-10.538086-8.874207-15.714722-14.697937-16.639099c5.82373-2.49585,9.891052-7.764893,9.891052-15.437378
			c0-10.722961-8.504456-16.916382-20.429077-16.916382H728.20166v67.480713h19.689575
			C761.294922,788.168762,770.076721,780.958496,770.076721,769.680908z"/>
		<path fill="#FFFFFF" d="M830.441711,758.218628h-19.044495l9.521301-26.807434L830.441711,758.218628z M848.465454,788.168945
			l-25.513306-68.127808h-3.882446l-25.418884,68.127808h6.838562l8.691223-24.034241h23.477722l8.691223,24.034241H848.465454z"/>
		<polygon fill="#FFFFFF" points="913.358459,788.168945 913.358459,782.252808 884.887024,782.252808 884.887024,720.688232 
			878.50885,720.688232 878.50885,788.168945 		"/>
		<polygon fill="#FFFFFF" points="976.40094,788.168945 976.40094,782.252808 947.929565,782.252808 947.929565,720.688232 
			941.551331,720.688232 941.551331,788.168945 		"/>
	</g>
	<g>
		<polygon fill="#FFFFFF" points="401.49176,143.307861 401.49176,75.830673 395.021332,75.830673 395.021332,131.938431 
			355.0896,75.830673 348.711609,75.830673 348.711609,143.307861 355.0896,143.307861 355.0896,86.737953 395.48349,143.307861 		
			"/>
		<path fill="#FFFFFF" d="M492.354889,109.38456c0,16.91552-12.108917,28.839607-27.083313,28.839607
			c-14.974426,0-27.175781-12.293861-27.175781-28.747223c0-16.268478,11.461884-28.562225,26.990936-28.562225
			C480.893005,80.914719,492.354889,93.208466,492.354889,109.38456z M499.102661,109.476944
			c0-19.596054-14.327362-34.755341-34.01593-34.755341c-19.041504,0-33.738647,15.06678-33.738647,34.755341
			c0,19.965942,14.974396,34.940353,33.923492,34.940353C484.128265,144.417297,499.102661,129.165619,499.102661,109.476944z"/>
		<polygon fill="#FFFFFF" points="557.243774,81.746765 557.243774,75.831032 519.345581,75.831032 519.345581,81.746765 
			534.967041,81.746765 534.967041,143.308212 541.4375,143.308212 541.4375,81.746765 		"/>
		<path fill="#FFFFFF" d="M619.451477,94.8722c0,9.243431-6.932617,14.142471-15.898804,14.142471H592.46051V81.746529h11.739258
			C613.073486,81.746529,619.451477,87.200111,619.451477,94.8722z M628.972229,143.307861l-25.604431-28.931992h1.756287
			c11.277039,0,20.982666-7.672081,20.982666-19.318787c0-11.369438-9.151062-19.22641-21.167542-19.22641h-18.856628v67.477188
			h6.37793v-31.9823l28.192566,31.9823H628.972229z"/>
		<polygon fill="#FFFFFF" points="694.97052,143.307861 694.97052,137.392136 663.912476,137.392136 663.912476,111.880219 
			691.36554,111.880219 691.36554,105.964363 663.912476,105.964363 663.912476,81.746529 693.214233,81.746529 
			693.214233,75.830673 657.534485,75.830673 657.534485,143.307861 		"/>
		<path fill="#FFFFFF" d="M804.597107,109.199913c0,15.80632-10.814819,28.377449-29.024414,28.377449h-8.688843V81.561996h9.520752
			C792.857971,81.561996,804.597107,92.838928,804.597107,109.199913z M811.344849,109.107407
			c0-20.150711-14.512207-33.276375-35.494873-33.276375h-15.344177v67.47718h14.974426
			C796.647766,143.308212,811.344849,129.44313,811.344849,109.107407z"/>
		<path fill="#FFFFFF" d="M869.671082,113.359177h-19.043457l9.520752-26.806107L869.671082,113.359177z M887.693909,143.307861
			L862.181946,75.18364h-3.882263l-25.417603,68.124222h6.84021l8.688843-24.032944h23.47644l8.690796,24.032944H887.693909z"/>
		<polygon fill="#FFFFFF" points="978.926575,143.307861 978.926575,75.830673 972.458069,75.830673 948.423157,110.955788 
			924.020447,75.830673 917.736816,75.830673 917.736816,143.307861 924.112793,143.307861 924.112793,86.645576 
			946.761292,119.274918 949.903992,119.274918 972.548584,86.460686 972.548584,143.307861 		"/>
		<polygon fill="#FFFFFF" points="1049.270142,143.307861 1049.270142,137.392136 1018.212036,137.392136 1018.212036,111.880219 
			1045.665161,111.880219 1045.665161,105.964363 1018.212036,105.964363 1018.212036,81.746529 1047.515747,81.746529 
			1047.515747,75.830673 1011.83606,75.830673 1011.83606,143.307861 		"/>
	</g>
	<g>
		<path fill="#986733" d="M698.990906,348.413727c-54.299744,0-98.469543,44.1698-98.469543,98.469604
			c0,54.299744,44.1698,98.469513,98.469543,98.469513s98.469482-44.169769,98.469482-98.469513
			C797.460388,392.583527,753.290649,348.413727,698.990906,348.413727z M771.700562,506.603027
			c-1.640015,1.98999-3.349976,3.899994-5.149963,5.75c-0.669983,0.700012-1.369995,1.400024-2.070007,2.069946
			c-1.859985,1.820007-3.799988,3.539978-5.799988,5.190002c-8.269958,6.799988-17.71991,12.21991-27.989868,15.899902
			c-2.709961,0.980042-5.47998,1.830017-8.289978,2.550049c-0.279968,0.070007-0.549988,0.139954-0.829956,0.199951
			c-0.450012,0.120056-0.890015,0.230042-1.340027,0.330017c-1.429993,0.330017-2.880005,0.630005-4.339966,0.900024
			c-2.769958,0.5-5.579956,0.890015-8.429993,1.130005c-2.789978,0.26001-5.609985,0.389954-8.46991,0.389954
			c-2.859985,0-5.679993-0.129944-8.469971-0.389954c-2.850037-0.23999-5.659973-0.630005-8.429993-1.130005
			c-1.459961-0.27002-2.909973-0.570007-4.339966-0.900024c-0.450012-0.099976-0.890015-0.209961-1.340027-0.330017
			c-0.279968-0.059998-0.549988-0.129944-0.829956-0.199951c-2.809998-0.720032-5.579956-1.570007-8.289978-2.550049
			c-10.289917-3.679993-19.749939-9.119934-28.029846-15.929932c-1.950012-1.609985-3.840027-3.289978-5.650024-5.049988
			c-0.01001-0.01001-0.02002-0.01001-0.02002-0.02002c-0.75-0.71991-1.5-1.46991-2.219971-2.21991
			c-1.779968-1.830048-3.469971-3.719971-5.089966-5.690002c0-0.01001,0-0.01001,0-0.01001
			c-6.809998-8.279938-12.239929-17.729889-15.919922-28.009888c-1.22998-3.399933-2.26001-6.889923-3.080017-10.4599
			c-0.329956-1.429993-0.630005-2.880005-0.899963-4.340027c-0.5-2.769989-0.890015-5.579987-1.130005-8.429962
			c-0.26001-2.789948-0.390015-5.609955-0.390015-8.46991c0-2.860046,0.130005-5.680023,0.390015-8.470001
			c0.23999-2.849976,0.630005-5.659943,1.130005-8.429962c0.269958-1.460022,0.570007-2.909943,0.899963-4.339996
			c0.100037-0.449951,0.210022-0.889954,0.330017-1.339966c0.059998-0.280029,0.130005-0.549988,0.200012-0.830017
			c0.719971-2.809998,1.570007-5.569977,2.539978-8.269989c3.690002-10.289917,9.119934-19.759857,15.939941-28.039856
			c1.640015-1.999969,3.369995-3.939972,5.189941-5.799957c0-0.01001,0.01001-0.02002,0.02002-0.030029
			c0.619995-0.639954,1.25-1.269958,1.890015-1.889954c1.889954-1.839996,3.849976-3.589996,5.880005-5.269989
			c0.009949,0,0.009949,0,0.009949,0c8.279968-6.819977,17.73999-12.249939,28.029907-15.929901
			c3.390015-1.220032,6.879944-2.25,10.439941-3.070007c1.429993-0.330017,2.880005-0.630005,4.339966-0.900024
			c2.77002-0.5,5.579956-0.889954,8.429993-1.130005c2.789978-0.259949,5.609985-0.389954,8.469971-0.389954
			c2.859924,0,5.679932,0.130005,8.46991,0.389954c2.850037,0.240051,5.660034,0.630005,8.429993,1.130005
			c1.459961,0.27002,2.909973,0.570007,4.339966,0.900024c3.559998,0.820007,7.049988,1.849976,10.439941,3.070007
			c10.289978,3.689972,19.759949,9.119934,28.049866,15.939911c2.02002,1.659973,3.960022,3.399963,5.830017,5.21994
			c0.630005,0.609985,1.26001,1.23999,1.859985,1.869995c1.850037,1.890015,3.609985,3.850037,5.289978,5.889984
			c0,0.01001,0,0.01001,0,0.01001c6.820007,8.289948,12.249939,17.749939,15.929932,28.039856
			c1.219971,3.390015,2.25,6.869965,3.070007,10.429962c0.329956,1.430054,0.630005,2.879974,0.899963,4.339996
			c0.5,2.77002,0.890015,5.579987,1.130005,8.429962c0.26001,2.789978,0.390015,5.609955,0.390015,8.470001
			c0,2.859955-0.130005,5.679962-0.390015,8.46991c-0.23999,2.849976-0.630005,5.659973-1.130005,8.429962
			c-0.269958,1.460022-0.570007,2.910034-0.899963,4.340027c-0.820007,3.569977-1.850037,7.049957-3.070007,10.449951
			C783.940491,488.863129,778.510559,498.32309,771.700562,506.603027z"/>
		<g>
			
				<rect x="732.240295" y="456.659698" transform="matrix(0.707107 -0.707107 0.707107 0.707107 -125.380836 659.229797)" fill="#FFFFFF" width="1.660036" height="48.606472"/>
			
				<rect x="664.082764" y="388.503387" transform="matrix(0.707107 -0.707107 0.707107 0.707107 -97.14856 591.071716)" fill="#FFFFFF" width="1.659346" height="48.602329"/>
			
				<rect x="640.610596" y="480.13327" transform="matrix(0.707401 -0.706812 0.706812 0.707401 -145.397522 610.698547)" fill="#FFFFFF" width="48.606125" height="1.659346"/>
			
				<rect x="708.77063" y="411.974548" transform="matrix(0.707107 -0.707107 0.707107 0.707107 -77.185143 639.2677)" fill="#FFFFFF" width="48.602329" height="1.660036"/>
		</g>
		<g>
			<path fill="#986733" d="M607.361267,425.643372h-2.5v4.339996h2.330017c-0.030029-0.390015-0.049988-0.780029-0.049988-1.169983
				C607.131287,427.743378,607.201294,426.683411,607.361267,425.643372z M607.211243,463.783203h-2.349976v4.340027h2.52002
				C607.151245,466.693237,607.091248,465.233215,607.211243,463.783203z M677.750977,352.753723v2.5
				c0.959961-0.150024,1.929993-0.220032,2.909973-0.220032c0.480042,0,0.960022,0.02002,1.429993,0.049988v-2.329956H677.750977z
				 M680.66095,538.73291c-0.97998,0-1.950012-0.070007-2.909973-0.220032v2.5h4.339966v-2.329956
				C681.620972,538.712891,681.140991,538.73291,680.66095,538.73291z M715.890808,352.753723v2.329956
				c0.469971-0.029968,0.949951-0.049988,1.429993-0.049988c0.97998,0,1.950012,0.070007,2.909973,0.220032v-2.5H715.890808z
				 M717.320801,538.73291c-0.480042,0-0.960022-0.02002-1.429993-0.049988v2.329956h4.339966v-2.5
				C719.270813,538.662903,718.300781,538.73291,717.320801,538.73291z M790.770508,463.783203
				c0.119995,1.450012,0.059998,2.910034-0.170044,4.340027h2.52002v-4.340027H790.770508z M790.600464,425.643372
				c0.230042,1.440002,0.290039,2.889984,0.170044,4.339996h2.349976v-4.339996H790.600464z"/>
			<path fill="#986733" d="M720.230774,463.783203v-33.799835h70.539734c0.119995-1.450012,0.059998-2.899994-0.170044-4.339996
				h-70.36969v-70.389648c-0.959961-0.150024-1.929993-0.220032-2.909973-0.220032c-0.480042,0-0.960022,0.02002-1.429993,0.049988
				v70.559692h-33.799866v-70.559692c-0.469971-0.029968-0.949951-0.049988-1.429993-0.049988
				c-0.97998,0-1.950012,0.070007-2.909973,0.220032v70.389648h-70.389709c-0.159973,1.040039-0.22998,2.100006-0.219971,3.170013
				c0,0.389954,0.019958,0.779968,0.049988,1.169983h70.559692v33.799835h-70.539734
				c-0.119995,1.450012-0.059998,2.910034,0.170044,4.340027h70.36969v70.389648
				c0.959961,0.150024,1.929993,0.220032,2.909973,0.220032c0.480042,0,0.960022-0.02002,1.429993-0.049988V468.12323h33.799866
				v70.559692c0.469971,0.029968,0.949951,0.049988,1.429993,0.049988c0.97998,0,1.950012-0.070007,2.909973-0.220032V468.12323
				h70.36969c0.230042-1.429993,0.290039-2.890015,0.170044-4.340027H720.230774z M715.890808,463.783203h-33.799866v-33.799835
				h33.799866V463.783203z"/>
		</g>
		<g>
			<path fill="#986733" d="M792.730469,438.41333c-1.919983-3.719971-5.049988-6.709991-8.880005-8.429962
				c-2.329895-1.059998-4.909912-1.650024-7.629944-1.650024c-2.719971,0-5.329956,0.580017-7.689941,1.650024
				c-2.630005,1.190002-4.949951,2.97998-6.789978,5.289948c-1.840027-2.309967-4.159973-4.099945-6.779968-5.289948
				c-2.369995-1.070007-4.97998-1.650024-7.699951-1.650024h-96.539612c-2.719971,0-5.329956,0.580017-7.69989,1.650024
				c-2.620056,1.190002-4.940002,2.97998-6.780029,5.289948c-1.840027-2.309967-4.159973-4.099945-6.789917-5.289948
				c-2.360046-1.070007-4.970032-1.650024-7.690002-1.650024c-2.720032,0-5.299988,0.590027-7.629944,1.650024
				c-3.830017,1.719971-6.960022,4.709991-8.880005,8.429962c-1.309998,2.539978-2.049927,5.419952-2.049927,8.470001
				c0,3.049957,0.739929,5.929962,2.049927,8.46991c1.919983,3.720032,5.049988,6.709991,8.880005,8.429962
				c2.329956,1.059998,4.909912,1.650024,7.629944,1.650024c2.719971,0,5.329956-0.580017,7.690002-1.650024
				c2.629944-1.190002,4.94989-2.97995,6.789917-5.289948c1.840027,2.309998,4.159973,4.099945,6.780029,5.289948
				c2.369934,1.070007,4.979919,1.650024,7.69989,1.650024h96.539612c2.719971,0,5.329956-0.580017,7.699951-1.650024
				c2.619995-1.190002,4.939941-2.97995,6.779968-5.289948c1.840027,2.309998,4.159973,4.099945,6.789978,5.289948
				c2.359985,1.070007,4.969971,1.650024,7.689941,1.650024c2.720032,0,5.300049-0.590027,7.629944-1.650024
				c3.830017-1.719971,6.960022-4.70993,8.880005-8.429962c1.309998-2.539948,2.049988-5.419952,2.049988-8.46991
				C794.780457,443.833282,794.040466,440.953308,792.730469,438.41333z M776.22052,463.773193
				c-6.139954,0-11.519897-3.279938-14.479919-8.189972c-2.950012,4.910034-8.329956,8.189972-14.479919,8.189972h-96.539612
				c-6.149902,0-11.529907-3.279938-14.479919-8.189972c-2.960022,4.910034-8.339966,8.189972-14.479919,8.189972
				c-9.329956,0-16.899963-7.559967-16.899963-16.889862c0-9.329987,7.570007-16.889954,16.899963-16.889954
				c6.139954,0,11.519897,3.279968,14.479919,8.189972c2.950012-4.910004,8.330017-8.189972,14.479919-8.189972h96.539612
				c6.149963,0,11.529907,3.279968,14.479919,8.189972c2.960022-4.910004,8.339966-8.189972,14.479919-8.189972
				c9.329956,0,16.899963,7.559967,16.899963,16.889954C793.120483,456.213226,785.550476,463.773193,776.22052,463.773193z
				 M682.090942,463.773193v0.01001h0.01001v-0.01001H682.090942z"/>
			<path fill="#986733" d="M710.60083,384.133606c2.309998-1.840027,4.099976-4.160034,5.289978-6.790009
				c1.069946-2.359985,1.649963-4.969971,1.649963-7.689972c0-2.719971-0.589966-5.299957-1.649963-7.629974
				c-1.719971-3.829926-4.709961-6.95993-8.429993-8.879974c-2.539978-1.309998-5.419983-2.049957-8.46991-2.049957
				c-3.049988,0-5.929993,0.73996-8.469971,2.049957c-3.720032,1.920044-6.709961,5.050049-8.429993,8.879974
				c-1.059998,2.330017-1.649963,4.910004-1.649963,7.629974c0,2.720001,0.580017,5.329987,1.649963,7.689972
				c1.190002,2.629974,2.980042,4.949982,5.289978,6.790009c-2.309937,1.839966-4.099976,4.159943-5.289978,6.779938
				c-1.069946,2.369965-1.649963,4.97995-1.649963,7.699982v96.539551c0,2.720001,0.580017,5.329987,1.649963,7.699982
				c1.190002,2.619965,2.980042,4.939972,5.289978,6.779999c-2.309937,1.839935-4.099976,4.159973-5.289978,6.789917
				c-1.069946,2.359985-1.649963,4.969971-1.649963,7.690002c0,2.719971,0.589966,5.299927,1.649963,7.629944
				c1.720032,3.830017,4.709961,6.959961,8.429993,8.880005c2.539978,1.309937,5.419983,2.049927,8.469971,2.049927
				c3.049927,0,5.929932-0.73999,8.46991-2.049927c3.720032-1.920044,6.710022-5.049988,8.429993-8.880005
				c1.059998-2.330017,1.649963-4.909973,1.649963-7.629944c0-2.720032-0.580017-5.330017-1.649963-7.690002
				c-1.190002-2.629944-2.97998-4.949982-5.289978-6.789917c2.309998-1.840027,4.099976-4.160034,5.289978-6.779999
				c1.069946-2.369995,1.649963-4.97998,1.649963-7.699982v-96.539551c0-2.720032-0.580017-5.330017-1.649963-7.699982
				C714.700806,388.293549,712.910828,385.973572,710.60083,384.133606z M715.880798,495.153076
				c0,6.149994-3.279968,11.529968-8.189941,14.47998c4.909973,2.959961,8.189941,8.339905,8.189941,14.479919
				c0,9.329956-7.559937,16.899902-16.889893,16.899902c-9.330017,0-16.889954-7.569946-16.889954-16.899902
				c0-6.140015,3.280029-11.519958,8.189941-14.479919c-4.909912-2.950012-8.189941-8.329987-8.189941-14.47998v-96.539551
				c0-6.149994,3.280029-11.529999,8.189941-14.479919c-4.909912-2.960022-8.189941-8.339996-8.189941-14.47998
				c0-9.329926,7.559937-16.899902,16.889954-16.899902c9.329956,0,16.889893,7.569977,16.889893,16.899902
				c0,6.139984-3.279968,11.519958-8.189941,14.47998c4.909973,2.949921,8.189941,8.329926,8.189941,14.479919V495.153076z"/>
		</g>
		<g>
			<path fill="#986733" d="M766.880615,485.413116c-1.109985-1.130005-2.350037-2.150024-3.720032-3.009979
				c-0.459961-0.299988-0.940002-0.570007-1.429993-0.829956c-0.26001,0.459961-0.52002,0.919983-0.789978,1.379913
				c-0.01001,0.02002-0.02002,0.040039-0.040039,0.059998c0.490051,0.25,0.970032,0.530029,1.440002,0.830017
				c2.540039,1.619995,4.670044,3.830017,6.230042,6.519989c2.559937,4.409973,3.239929,9.559967,1.929932,14.489929
				c-0.75,2.830017-2.129944,5.369995-3.949951,7.5c-0.630005,0.73999-1.330017,1.440002-2.070007,2.069946
				c-3.380005,2.900024-7.75,4.619995-12.429932,4.619995c-1.650024,0-3.309998-0.219971-4.929993-0.650024
				c-4.679993-1.23999-8.629944-4.149963-11.189941-8.2099c-0.150024-0.220032-0.289978-0.440002-0.419983-0.670044
				c-0.140015-0.25-0.280029-0.5-0.410034-0.75c-0.019958,0.01001-0.049988,0.030029-0.070007,0.040039
				c-0.449951,0.26001-0.909973,0.52002-1.369995,0.77002c0.25,0.48999,0.530029,0.95993,0.830017,1.429962
				c0.849976,1.360016,1.859985,2.620026,3.01001,3.749969c2.469971,2.440002,5.599915,4.279968,9.199951,5.23999
				c1.789978,0.47998,3.579956,0.709961,5.349976,0.709961c2.280029,0,4.519958-0.379944,6.629944-1.089966
				c5.950012-2.02002,10.889954-6.699951,13.019958-13.009949c0.149963-0.429993,0.279968-0.869995,0.399963-1.320007
				C774.050537,497.953033,771.830566,490.483093,766.880615,485.413116z"/>
			<path fill="#986733" d="M663.481018,382.733582c-0.849976-1.349976-1.859985-2.599976-3.01001-3.720001
				c0-0.009949,0-0.009949,0-0.009949c-2.46991-2.429993-5.589905-4.27002-9.189941-5.230042
				c-1.789978-0.469971-3.579956-0.699951-5.349976-0.699951c-2.289917,0-4.529968,0.379944-6.649963,1.099976c0,0,0,0-0.009949,0
				c-5.940002,2.02002-10.859985,6.689972-12.97998,12.989929c-0.159973,0.429993-0.289978,0.880005-0.409973,1.330017
				c-1.960022,7.339935,0.279968,14.819946,5.23999,19.869904c1.109924,1.149963,2.359924,2.159973,3.729919,3.029968
				c0.460022,0.290039,0.940002,0.570007,1.440002,0.820007c0.25-0.459961,0.51001-0.919983,0.77002-1.369995
				c0.01001-0.019958,0.029968-0.049988,0.039978-0.070007c-0.48999-0.25-0.969971-0.519958-1.429993-0.820007
				c-2.549988-1.619995-4.699951-3.849945-6.259949-6.539948c-2.559998-4.409943-3.23999-9.559967-1.929993-14.489929
				c0.76001-2.859985,2.150024-5.429962,3.999939-7.559967c0-0.01001,0.01001-0.02002,0.02002-0.030029
				c0.589966-0.679993,1.219971-1.309998,1.890015-1.889954c3.389954-2.959991,7.809998-4.709991,12.539917-4.709991
				c1.650024,0,3.309998,0.219971,4.929993,0.650024c4.799988,1.279968,8.689941,4.289948,11.169922,8.179962
				c0.300049,0.459961,0.580017,0.940002,0.830017,1.429993c0.02002-0.01001,0.039978-0.030029,0.070007-0.040039
				c0.450012-0.269958,0.919983-0.529968,1.380005-0.779968C664.051025,383.683594,663.781006,383.203552,663.481018,382.733582z"/>
			<path fill="#986733" d="M771.700562,387.173553c0,0,0,0,0-0.01001c-2.02002-5.939972-6.689941-10.859924-12.97998-12.979919
				c-0.440002-0.150024-0.889954-0.290039-1.339966-0.410034c-1.789978-0.469971-3.589966-0.699951-5.349976-0.699951
				c-5.47998,0-10.689941,2.189941-14.519897,5.929993c-1.119995,1.089935-2.119995,2.319977-2.970032,3.669952
				c-0.309998,0.460022-0.589966,0.940002-0.839966,1.440002c0.459961,0.25,0.929993,0.52002,1.380005,0.789978
				c0.019958,0.01001,0.039978,0.02002,0.059998,0.040039c0.259949-0.5,0.539978-0.990051,0.849976-1.450012
				c3.440002-5.350006,9.429932-8.759979,16.039917-8.759979c1.650024,0,3.309998,0.219971,4.929932,0.650024
				c2.900024,0.769958,5.460022,2.169983,7.590027,4.019928c0.669983,0.580017,1.289978,1.210022,1.859985,1.869995
				c4.039978,4.630005,5.779968,11.110016,4.089966,17.47998c-1.259949,4.71994-4.229919,8.639893-8.129944,11.149902
				c-0.460022,0.299988-0.940002,0.580017-1.429993,0.830017c0.01001,0.02002,0.029968,0.049988,0.039978,0.070007
				c0.27002,0.459961,0.530029,0.919983,0.780029,1.380005c0.48999-0.26001,0.959961-0.540039,1.429993-0.830017
				c1.330017-0.849976,2.570007-1.849976,3.679993-2.98999c0,0,0,0,0.01001,0c2.429993-2.470001,4.269897-5.589996,5.21991-9.179932
				C773.190552,395.073547,772.98053,390.923553,771.700562,387.173553z"/>
			<path fill="#986733" d="M662.971008,508.763c-0.029968-0.009949-0.049988-0.019958-0.079956-0.039978
				c-0.25,0.5-0.52002,0.97998-0.820007,1.440002c-3.439941,5.409973-9.459961,8.879944-16.119934,8.879944
				c-1.649963,0-3.309937-0.219971-4.929932-0.650024c-2.77002-0.73999-5.290039-2.059998-7.410034-3.859985
				c-0.01001-0.01001-0.02002-0.01001-0.02002-0.02002c-0.799988-0.669922-1.539978-1.409912-2.219971-2.21991
				c-0.729919-0.860016-1.379944-1.790009-1.959961-2.780029c-2.559998-4.419983-3.23999-9.559967-1.929993-14.489929
				c1.27002-4.769958,4.279968-8.70993,8.239929-11.21994c0.460022-0.299988,0.940002-0.570007,1.440002-0.830017
				c-0.01001-0.02002-0.029968-0.039978-0.039978-0.070007c-0.27002-0.449982-0.530029-0.909943-0.77002-1.369965
				c-0.5,0.25-0.97998,0.530029-1.450012,0.830017c-1.379944,0.859955-2.649963,1.879974-3.789917,3.049957c0,0,0,0-0.01001,0
				c-2.429993,2.470032-4.269958,5.589996-5.219971,9.179962c-1.090027,4.109955-0.880005,8.259979,0.399963,11.999939
				c0,0,0,0,0,0.01001c2.02002,5.940002,6.689941,10.859924,12.97998,12.979919
				c0.440002,0.150024,0.889954,0.290039,1.339966,0.410034c1.790039,0.47998,3.580017,0.709961,5.349976,0.709961
				c5.47998,0,10.690002-2.190002,14.519897-5.929993c1.150024-1.129944,2.179993-2.389893,3.050049-3.779938
				c0.289978-0.470032,0.569946-0.949982,0.819946-1.439972C663.881042,509.29303,663.421021,509.03302,662.971008,508.763z"/>
			<path fill="#986733" d="M792.290466,425.643372c-0.519958-3.73999-2.070007-7.359955-4.659973-10.429962
				c-0.320007-0.389954-0.660034-0.769958-1.02002-1.139954c-4.059937-4.180023-9.46991-6.279999-14.869934-6.279999
				c-1.630005,0-3.259949,0.190002-4.859924,0.570007c-0.01001,0-0.01001,0-0.01001,0
				c-1.530029,0.369995-3.02002,0.919983-4.450012,1.640015c-0.48999,0.23999-0.969971,0.509949-1.440002,0.799988
				c0.27002,0.459961,0.530029,0.919983,0.780029,1.380005c0.019958,0.019958,0.029968,0.039978,0.029968,0.059998
				c0.470032-0.290039,0.950012-0.559998,1.450012-0.799988c2.609985-1.300049,5.5-1.990051,8.499939-1.990051
				c2.599976,0,5.109985,0.51001,7.429993,1.490051c2.320007,0.97998,4.439941,2.419983,6.259949,4.289948
				c2.869995,2.950012,4.599976,6.609955,5.169983,10.409943c0.230042,1.440002,0.290039,2.889984,0.170044,4.339996h1.679993
				C792.550476,428.533356,792.500488,427.083374,792.290466,425.643372z"/>
			<path fill="#986733" d="M636.351135,481.533142c-0.029968-0.029968-0.039978-0.049988-0.049988-0.080017
				c-0.469971,0.300049-0.950012,0.570007-1.450012,0.820007c-2.640015,1.339996-5.569946,2.050018-8.609924,2.050018
				c-5.200012,0-10.059937-2.050018-13.689941-5.779999c-2.869995-2.959991-4.599976-6.619965-5.169983-10.419922
				c-0.230042-1.429993-0.290039-2.890015-0.170044-4.340027h-1.679993c-0.099976,1.440002-0.049988,2.900024,0.160034,4.340027
				c0.519958,3.749969,2.080017,7.389923,4.669983,10.4599c0.309998,0.380005,0.650024,0.76001,1,1.119995
				c4.070007,4.180023,9.479919,6.279999,14.879944,6.279999c1.630005,0,3.26001-0.190002,4.859985-0.570007
				c0.01001,0,0.01001,0,0.01001,0c1.569946-0.380005,3.099915-0.950012,4.569946-1.690002
				c0.48999-0.25,0.969971-0.52002,1.440002-0.820007C636.851135,482.453125,636.591125,481.993164,636.351135,481.533142z"/>
			<path fill="#986733" d="M680.66095,353.373718c-0.969971,0-1.940002,0.070007-2.909973,0.209961
				c-3.75,0.52002-7.379944,2.070007-10.439941,4.660034c-0.390015,0.319977-0.76001,0.659943-1.130005,1.019928
				c-5.440002,5.300049-7.359924,12.850006-5.710022,19.73999c0,0,0,0,0,0.009949
				c0.369995,1.540009,0.920044,3.050018,1.650024,4.490021c0.25,0.48999,0.52002,0.97998,0.809998,1.449951
				c0.450012-0.269958,0.919983-0.529968,1.380005-0.779968c0.02002-0.02002,0.049988-0.039978,0.070007-0.039978
				c-0.299988-0.470032-0.570007-0.960022-0.809998-1.460022c-3.610046-7.23996-2.330017-16.289917,3.76001-22.21994
				c2.889954-2.809967,6.509888-4.599945,10.419922-5.199921c0.959961-0.150024,1.929993-0.220032,2.909973-0.220032
				c0.480042,0,0.960022,0.02002,1.429993,0.049988v-1.659973C681.620972,353.393677,681.140991,353.373718,680.66095,353.373718z"
				/>
			<path fill="#986733" d="M737.500732,514.752991c-0.369995-1.549988-0.919983-3.069977-1.660034-4.519958
				c-0.25-0.48999-0.519958-0.960022-0.809998-1.429993c-0.449951,0.26001-0.909973,0.52002-1.369995,0.77002
				c-0.019958,0.019958-0.039978,0.029968-0.070007,0.039978c0.290039,0.469971,0.559998,0.949982,0.800049,1.449982
				c1.369995,2.699982,2.069946,5.71994,2.029968,8.829926c-0.070007,5.100037-2.119995,9.869934-5.77002,13.429993
				c-2.349976,2.279968-5.179932,3.889954-8.249939,4.73999c-0.279968,0.070007-0.549988,0.139954-0.829956,0.199951
				c-0.440002,0.100037-0.890015,0.180054-1.340027,0.25c-0.959961,0.150024-1.929993,0.220032-2.909973,0.220032
				c-0.480042,0-0.960022-0.02002-1.429993-0.049988v1.659973c0.469971,0.030029,0.949951,0.049988,1.429993,0.049988
				c0.969971,0,1.940002-0.069946,2.909973-0.209961c3.76001-0.52002,7.400024-2.070007,10.459961-4.670044
				c0.380005-0.309998,0.75-0.649963,1.109985-1C737.250732,529.212891,739.170715,521.642944,737.500732,514.752991z"/>
			<path fill="#986733" d="M635.621155,410.033447c-1.450012-0.73999-2.960022-1.289978-4.499939-1.669983
				c-1.599976-0.380005-3.23999-0.570007-4.880005-0.570007c-5.409973,0-10.809937,2.099976-14.879944,6.279999
				c-0.349976,0.369995-0.690002,0.73999-1.01001,1.129944c-2.579956,3.070007-4.140015,6.699982-4.659973,10.439972
				c-0.210022,1.440002-0.26001,2.899994-0.160034,4.339996h1.660034c-0.030029-0.390015-0.049988-0.780029-0.049988-1.169983
				c-0.01001-1.070007,0.059998-2.129974,0.219971-3.170013c0.070007-0.449951,0.150024-0.899963,0.25-1.339966
				c0.059998-0.280029,0.130005-0.549988,0.200012-0.830017c0.849976-3.069977,2.460022-5.889984,4.73999-8.23996
				c3.630005-3.72995,8.489929-5.779999,13.689941-5.779999c3.02002,0,5.939941,0.700012,8.559937,2.02002
				c0.5,0.23999,0.97998,0.51001,1.450012,0.809998c0.01001-0.02002,0.02002-0.049988,0.039978-0.070007
				c0.25-0.459961,0.51001-0.919983,0.77002-1.369995C636.591125,410.543457,636.111145,410.273438,635.621155,410.033447z"/>
			<path fill="#986733" d="M792.4505,463.783203h-1.679993c0.119995,1.450012,0.059998,2.910034-0.170044,4.340027
				c-0.570007,3.799957-2.299988,7.45993-5.169983,10.419922c-3.629944,3.72998-8.489929,5.779999-13.689941,5.779999
				c-3.009949,0-5.909912-0.700012-8.529968-2.009979c-0.5-0.23999-0.97998-0.51001-1.449951-0.809998
				c-0.01001,0.029968-0.02002,0.049988-0.030029,0.070007c-0.26001,0.459961-0.52002,0.919983-0.789978,1.379913
				c0.469971,0.290039,0.950012,0.559998,1.440002,0.809998h0.01001c1.440002,0.730042,2.949951,1.280029,4.48999,1.650024
				c1.599976,0.380005,3.229919,0.570007,4.859924,0.570007c5.400024,0,10.809998-2.099976,14.869934-6.279999
				c0.359985-0.369995,0.700012-0.73999,1.02002-1.129944c2.589966-3.069977,4.140015-6.699982,4.659973-10.449951
				C792.500488,466.683228,792.550476,465.233215,792.4505,463.783203z"/>
			<path fill="#986733" d="M731.80072,359.263641c-0.369995-0.359985-0.73999-0.699951-1.130005-1.019928
				c-3.059937-2.590027-6.689941-4.140015-10.439941-4.660034c-0.969971-0.139954-1.940002-0.209961-2.909973-0.209961
				c-0.480042,0-0.960022,0.019958-1.429993,0.049988v1.659973c0.469971-0.029968,0.949951-0.049988,1.429993-0.049988
				c0.97998,0,1.950012,0.070007,2.909973,0.220032c3.910034,0.599976,7.530029,2.389954,10.419922,5.199921
				c6.080017,5.910004,7.370056,14.929993,3.790039,22.159943c-0.23999,0.5-0.51001,0.98999-0.809998,1.460022
				c0.029968,0.009949,0.049988,0.019958,0.070007,0.039978c0.459961,0.25,0.929993,0.52002,1.380005,0.789978
				c0.289978-0.47998,0.559998-0.959961,0.809998-1.459961c0.709961-1.430054,1.25-2.920044,1.619995-4.439972
				C739.160706,372.113647,737.240723,364.56369,731.80072,359.263641z"/>
			<path fill="#986733" d="M680.66095,538.73291c-0.97998,0-1.950012-0.070007-2.909973-0.220032
				c-0.450012-0.069946-0.900024-0.149963-1.340027-0.25c-0.279968-0.059998-0.549988-0.129944-0.829956-0.199951
				c-3.069946-0.850037-5.899963-2.460022-8.249939-4.73999c-3.650024-3.560059-5.700012-8.329956-5.77002-13.429993
				c-0.039978-3.130005,0.659973-6.149902,2.039978-8.859955c0.23999-0.5,0.51001-0.97995,0.809998-1.449982
				c-0.019958,0-0.049988-0.019958-0.070007-0.029968c-0.459961-0.26001-0.919983-0.52002-1.369995-0.790039
				c-0.299988,0.470032-0.570007,0.960022-0.820007,1.450012c-0.73999,1.459991-1.299988,3-1.679993,4.559937
				c-1.649902,6.890015,0.27002,14.439941,5.710022,19.739929c0.359985,0.350037,0.72998,0.690002,1.109985,1
				c3.059998,2.600037,6.699951,4.150024,10.459961,4.670044c0.969971,0.140015,1.940002,0.209961,2.909973,0.209961
				c0.480042,0,0.960022-0.019958,1.429993-0.049988v-1.659973C681.620972,538.712891,681.140991,538.73291,680.66095,538.73291z"/>
			<g>
				<path fill="#FFFFFF" d="M677.750977,376.683624v1.72998c-4.660034,1.449982-9.129944,3.369965-13.369934,5.720001
					c-0.02002,0-0.049988,0.019958-0.070007,0.039978c-0.460022,0.25-0.929993,0.51001-1.380005,0.779968
					c-0.030029,0.01001-0.049988,0.030029-0.070007,0.040039c-8.279907,4.839935-15.579956,11.339905-21.369873,19.149872
					c-1.590027,2.140015-3.059998,4.350006-4.390015,6.629974c-0.01001,0.02002-0.029968,0.050049-0.039978,0.070007
					c-0.26001,0.450012-0.52002,0.910034-0.77002,1.369995c-0.019958,0.02002-0.029968,0.049988-0.039978,0.070007
					c-2.350037,4.249969-4.25,8.709961-5.689941,13.359924h-1.720032c1.470032-4.940002,3.469971-9.669952,5.959961-14.169922
					c0.01001-0.029968,0.030029-0.059998,0.049988-0.080017c0.25-0.459961,0.5-0.909973,0.77002-1.359985
					c0.01001-0.029968,0.029968-0.059998,0.049988-0.080017c1.359985-2.339966,2.859985-4.599945,4.48999-6.799957
					c5.919983-7.98996,13.389954-14.639954,21.869873-19.589874c0.030029-0.030029,0.059998-0.040039,0.090027-0.059998
					c0.450012-0.26001,0.900024-0.52002,1.359985-0.77002c0.030029-0.02002,0.059998-0.039978,0.090027-0.059998
					C668.061035,380.193604,672.800964,378.173615,677.750977,376.683624z"/>
				<path fill="#FFFFFF" d="M677.750977,515.282959v1.72998c-4.929993-1.47998-9.659973-3.479919-14.149963-5.97995
					c-0.029968-0.01001-0.049988-0.02002-0.079956-0.039978c-0.460022-0.25-0.920044-0.51001-1.370056-0.779999
					c-0.029968-0.01001-0.049988-0.029968-0.079956-0.049988c-2.309998-1.339966-4.549927-2.830017-6.719971-4.440002
					c-8-5.939972-14.659912-13.419922-19.629944-21.919891c-0.01001-0.02002-0.029968-0.049988-0.039978-0.080017
					c-0.27002-0.450012-0.530029-0.899963-0.780029-1.359955c-0.009949-0.030029-0.029968-0.059998-0.049988-0.090027
					c-2.469971-4.47998-4.479919-9.21994-5.96991-14.149902h1.719971c1.449951,4.639923,3.359924,9.109924,5.699951,13.329895
					c0.01001,0.030029,0.02002,0.050049,0.049988,0.080017c0.23999,0.460022,0.5,0.919983,0.77002,1.369965
					c0.01001,0.030029,0.029968,0.049988,0.039978,0.070007c4.850037,8.299957,11.359985,15.609924,19.179932,21.419891
					c2.119995,1.570007,4.299988,3.02002,6.549988,4.330017c0.029968,0.02002,0.049988,0.030029,0.079956,0.039978
					c0.450012,0.27002,0.910034,0.530029,1.369995,0.790039c0.02002,0.01001,0.050049,0.029968,0.070007,0.029968
					C668.651001,511.943024,673.110962,513.853027,677.750977,515.282959z"/>
				<path fill="#FFFFFF" d="M769.210571,468.12323c-1.48999,4.939972-3.5,9.679932-6,14.189941
					c-0.009949,0.029968-0.029968,0.059998-0.049988,0.089966c-0.25,0.459991-0.51001,0.910004-0.769958,1.359955h-0.01001
					c-0.01001,0.030029-0.02002,0.050049-0.040039,0.080017c-1.339966,2.290039-2.819946,4.52002-4.419983,6.679962
					c-5.959961,8.029999-13.459961,14.699951-21.989868,19.659973c-0.030029,0.019958-0.059998,0.039978-0.090027,0.049988
					c-0.440002,0.269989-0.899963,0.519989-1.349976,0.769989c-0.030029,0.019958-0.070007,0.039978-0.099976,0.059998
					c-4.480042,2.470001-9.219971,4.47995-14.159973,5.95993v-1.719971c4.660034-1.439941,9.129944-3.350006,13.359924-5.689941
					c0.030029-0.01001,0.050049-0.02002,0.070007-0.039978c0.460022-0.25,0.920044-0.51001,1.369995-0.77002
					c0.02002-0.01001,0.050049-0.030029,0.070007-0.040039c8.329956-4.849976,15.669983-11.379913,21.489868-19.219879
					c1.559998-2.109985,3-4.289978,4.309998-6.530029c0.02002-0.019958,0.030029-0.039978,0.040039-0.059998
					c0.269958-0.45993,0.529968-0.919952,0.789978-1.379913c0.01001-0.02002,0.02002-0.040039,0.030029-0.070007
					c2.369995-4.25,4.279968-8.730011,5.719971-13.379944H769.210571z"/>
				<path fill="#FFFFFF" d="M769.220581,425.643372h-1.719971c-1.440002-4.669983-3.359985-9.159943-5.710022-13.399902
					c0-0.02002-0.01001-0.040039-0.029968-0.059998c-0.25-0.460022-0.51001-0.920044-0.780029-1.380005
					c-0.01001-0.02002-0.029968-0.049988-0.039978-0.070007c-4.850037-8.309967-11.369934-15.629944-19.19989-21.439911
					c-2.140015-1.580017-4.340027-3.030029-6.599976-4.349945c-0.02002-0.02002-0.040039-0.030029-0.059998-0.040039
					c-0.450012-0.269958-0.920044-0.539978-1.380005-0.789978c-0.02002-0.02002-0.040039-0.030029-0.070007-0.039978
					c-4.26001-2.360046-8.739929-4.27002-13.399963-5.709991v-1.72998c4.950012,1.47998,9.699951,3.47995,14.209961,5.97995
					c0.029968,0.02002,0.070007,0.029968,0.099976,0.059998c0.450012,0.23999,0.900024,0.5,1.350037,0.77002
					c0.029968,0.009949,0.069946,0.029968,0.099976,0.049988c2.309998,1.349976,4.559998,2.839935,6.739929,4.45993
					c8.01001,5.949982,14.669922,13.439941,19.639954,21.949921c0.02002,0.030029,0.039978,0.059998,0.049988,0.100037
					c0.27002,0.440002,0.530029,0.899963,0.77002,1.349976c0.019958,0.030029,0.039978,0.059998,0.049988,0.090027
					C765.720581,415.943451,767.730591,420.69342,769.220581,425.643372z"/>
			</g>
		</g>
	</g>
</g>
</svg>
