<?xml version="1.0" encoding="utf-8"?>
<!-- Generator: Adobe Illustrator 25.4.3, SVG Export Plug-In . SVG Version: 6.00 Build 0)  -->
<svg version="1.1" id="Layer_1" xmlns="http://www.w3.org/2000/svg" xmlns:xlink="http://www.w3.org/1999/xlink" x="0px" y="0px"
	 viewBox="0 0 303.2 364.9" style="height: 100%; width: auto;" xml:space="preserve">
<style type="text/css">
	.st0{fill:none;stroke:#00150C;stroke-width:8.472;stroke-linecap:round;stroke-linejoin:round;stroke-miterlimit:10;}
	.st1{fill:none;stroke:#27380D;stroke-width:8.472;stroke-linecap:round;stroke-linejoin:round;stroke-miterlimit:10;}
	.st2{fill:none;stroke:#EAD7A1;stroke-width:8.472;stroke-linecap:round;stroke-linejoin:round;stroke-miterlimit:10;}
	.st3{fill:none;stroke:#A32E14;stroke-width:8.472;stroke-linecap:round;stroke-linejoin:round;stroke-miterlimit:10;}
	.st4{fill:none;stroke:#000000;stroke-width:8.472;stroke-linecap:round;stroke-linejoin:round;stroke-miterlimit:10;}
</style>
<path class="st0" d="M107.4,45.4l17.1-40.2l40.2,17.1 M43.2,196.5L5.2,286l89.5,38 M292.7,91.1l5.2-12.2l-12.2-5.2"/>
<path class="st1" d="M251.1,189.3l-64.1,151.1 M78.9,112.5c-40.7,95.8,4,206.5,99.9,247.2"/>
<path class="st2" d="M223.5,70l-37.3,88l-88-37.3 M231.7,50.8C172.4,25.6,104,53.2,78.9,112.5"/>
<path class="st3" d="M250.5,137l-47-19.9l19.9-47 M269.8,145.2c15.5-36.6-1.5-78.9-38.1-94.4"/>
<path class="st4" d="M219.6,149.5l9.2-21.7l21.7,9.2 M211.4,168.7c22.6,9.6,48.8-1,58.4-23.6"/>
</svg>
