<?xml version="1.0" encoding="utf-8"?>
<!-- Generator: Adobe Illustrator 25.4.3, SVG Export Plug-In . SVG Version: 6.00 Build 0)  -->
<svg version="1.1" id="Layer_1" xmlns="http://www.w3.org/2000/svg" xmlns:xlink="http://www.w3.org/1999/xlink" x="0px" y="0px"
	 viewBox="0 0 35 35" enable-background="new 0 0 35 35" xml:space="preserve">
<path fill-rule="evenodd" clip-rule="evenodd" d="M0.5,4.5v26c0,2.2,1.8,4,4,4h26c2.2,0,4-1.8,4-4v-26c0-2.2-1.8-4-4-4h-26
	C2.3,0.5,0.5,2.3,0.5,4.5z M11.1,28.7H6V13.6h5V28.7z M8.6,11.5L8.6,11.5c-1.7,0-2.8-1.2-2.8-2.6c0-1.5,1.1-2.6,2.9-2.6
	c1.7,0,2.8,1.1,2.8,2.6C11.4,10.3,10.3,11.5,8.6,11.5z M29.3,28.7h-5v-8.1c0-2-0.7-3.4-2.6-3.4c-1.4,0-2.2,0.9-2.6,1.8
	c-0.1,0.3-0.2,0.8-0.2,1.2v8.5h-5c0,0,0.1-13.8,0-15.2h5v2.2c0.7-1,1.9-2.5,4.5-2.5c3.3,0,5.8,2.2,5.8,6.8V28.7z"/>
</svg>
