<?xml version="1.0" encoding="utf-8"?>
<!-- Generator: Adobe Illustrator 25.4.3, SVG Export Plug-In . SVG Version: 6.00 Build 0)  -->
<svg version="1.1" id="Layer_1" xmlns="http://www.w3.org/2000/svg" xmlns:xlink="http://www.w3.org/1999/xlink" x="0px" y="0px"
	 viewBox="0 0 56 45.7" enable-background="new 0 0 56 45.7" xml:space="preserve">
<g id="twitter_00000137810817738603358090000003984328306926513280_">
	<path d="M55.5,5.8c-2,0.9-4.2,1.5-6.5,1.8c2.3-1.4,4.1-3.6,5-6.2c-2.2,1.3-4.6,2.2-7.2,2.7c-2.1-2.2-5-3.6-8.2-3.6
		c-6.2,0-11.3,5.1-11.3,11.3c0,0.9,0.1,1.7,0.3,2.6c-9.4-0.5-17.7-5-23.3-11.8c-1,1.7-1.5,3.6-1.5,5.7c0,3.9,2,7.4,5,9.4
		c-1.8-0.1-3.6-0.6-5.1-1.4c0,0,0,0.1,0,0.1c0,5.5,3.9,10,9.1,11.1c-0.9,0.3-1.9,0.4-3,0.4c-0.7,0-1.4-0.1-2.1-0.2
		c1.4,4.5,5.6,7.7,10.5,7.8c-3.9,3-8.7,4.8-14,4.8c-0.9,0-1.8-0.1-2.7-0.2c5,3.2,10.9,5.1,17.3,5.1c20.8,0,32.1-17.2,32.1-32.1
		c0-0.5,0-1,0-1.5C52.1,10,54,8.1,55.5,5.8L55.5,5.8z"/>
</g>
</svg>
