<?xml version="1.0" encoding="utf-8"?>
<!-- Generator: Adobe Illustrator 25.4.3, SVG Export Plug-In . SVG Version: 6.00 Build 0)  -->
<svg version="1.1" id="Layer_1" xmlns="http://www.w3.org/2000/svg" xmlns:xlink="http://www.w3.org/1999/xlink" x="0px" y="0px"
	 viewBox="0 0 42.8 35" enable-background="new 0 0 42.8 35" xml:space="preserve">
<g id="twitter_00000137810817738603358090000003984328306926513280_">
	<path d="M42.3,4.5c-1.5,0.7-3.2,1.1-4.9,1.4c1.8-1.1,3.1-2.7,3.8-4.7c-1.7,1-3.5,1.7-5.5,2.1c-1.6-1.7-3.8-2.7-6.3-2.7
		c-4.7,0-8.6,3.8-8.6,8.6c0,0.7,0.1,1.3,0.2,2C14,10.7,7.6,7.3,3.4,2.1C2.7,3.3,2.3,4.8,2.3,6.4c0,3,1.5,5.6,3.8,7.1
		c-1.4,0-2.7-0.4-3.9-1.1c0,0,0,0.1,0,0.1c0,4.2,3,7.6,6.9,8.4c-0.7,0.2-1.5,0.3-2.3,0.3c-0.6,0-1.1-0.1-1.6-0.2
		c1.1,3.4,4.3,5.9,8,6c-2.9,2.3-6.6,3.7-10.7,3.7c-0.7,0-1.4,0-2-0.1c3.8,2.4,8.3,3.9,13.2,3.9c15.8,0,24.4-13.1,24.4-24.4
		c0-0.4,0-0.7,0-1.1C39.7,7.8,41.2,6.2,42.3,4.5L42.3,4.5z"/>
</g>
</svg>
