<?xml version="1.0" encoding="utf-8"?>
<!-- Generator: Adobe Illustrator 25.4.3, SVG Export Plug-In . SVG Version: 6.00 Build 0)  -->
<svg version="1.1" id="Layer_1" xmlns="http://www.w3.org/2000/svg" xmlns:xlink="http://www.w3.org/1999/xlink" x="0px" y="0px"
	 viewBox="0 0 35 34.2" enable-background="new 0 0 35 34.2" xml:space="preserve">
<path fill-rule="evenodd" clip-rule="evenodd" d="M17.5,0.5c-9.4,0-17,7.6-17,17c0,7.5,4.9,13.9,11.6,16.1c0.9,0.2,1.2-0.4,1.2-0.8
	c0-0.4,0-1.5,0-2.9c-4.7,1-5.7-2.3-5.7-2.3c-0.8-2-1.9-2.5-1.9-2.5c-1.5-1.1,0.1-1,0.1-1c1.7,0.1,2.6,1.8,2.6,1.8
	c1.5,2.6,4,1.8,4.9,1.4c0.2-1.1,0.6-1.8,1.1-2.3c-3.8-0.4-7.7-1.9-7.7-8.4c0-1.9,0.7-3.4,1.7-4.6c-0.2-0.4-0.8-2.2,0.2-4.5
	c0,0,1.4-0.5,4.7,1.7c1.4-0.4,2.8-0.6,4.3-0.6c1.4,0,2.9,0.2,4.3,0.6c3.2-2.2,4.7-1.7,4.7-1.7c0.9,2.3,0.3,4.1,0.2,4.5
	c1.1,1.2,1.7,2.7,1.7,4.6c0,6.5-4,8-7.8,8.4c0.6,0.5,1.2,1.6,1.2,3.1c0,2.3,0,4.1,0,4.7c0,0.5,0.3,1,1.2,0.8
	c6.7-2.3,11.6-8.6,11.6-16.1C34.5,8.1,26.9,0.5,17.5,0.5z"/>
</svg>
