<?xml version="1.0" encoding="utf-8"?>
<!-- Generator: Adobe Illustrator 25.4.3, SVG Export Plug-In . SVG Version: 6.00 Build 0)  -->
<svg version="1.1" id="Layer_1" xmlns="http://www.w3.org/2000/svg" xmlns:xlink="http://www.w3.org/1999/xlink" x="0px" y="0px"
	 viewBox="0 0 35 34.9" enable-background="new 0 0 35 34.9" xml:space="preserve">
<path d="M34.3,20.2c-0.6-0.2-5.3-1.6-10.6-0.7c2.2,6.1,3.1,11.1,3.3,12.1C30.8,29,33.5,24.9,34.3,20.2L34.3,20.2L34.3,20.2z
	 M24.1,33.1c-0.2-1.5-1.2-6.7-3.6-12.9c0,0-0.1,0-0.1,0c-9.6,3.3-13,10-13.3,10.6c2.9,2.2,6.5,3.6,10.4,3.6
	C19.8,34.4,22.1,34,24.1,33.1L24.1,33.1L24.1,33.1z M4.9,28.8c0.4-0.7,5.1-8.4,13.8-11.2c0.2-0.1,0.5-0.1,0.7-0.2
	c-0.4-1-0.9-1.9-1.4-2.9C9.5,17.1,1.3,17,0.5,16.9c0,0.2,0,0.3,0,0.5C0.5,21.8,2.2,25.8,4.9,28.8L4.9,28.8L4.9,28.8z M0.9,14
	c0.8,0,7.8,0,15.7-2.1c-2.8-5-5.9-9.2-6.3-9.8C5.5,4.4,2,8.7,0.9,14L0.9,14L0.9,14z M13.5,1c0.5,0.6,3.6,4.8,6.3,9.9
	c6-2.3,8.6-5.7,8.9-6.1c-3-2.7-6.9-4.3-11.3-4.3C16.1,0.5,14.8,0.7,13.5,1L13.5,1L13.5,1z M30.6,6.7c-0.4,0.5-3.2,4.1-9.5,6.7
	c0.4,0.8,0.8,1.6,1.1,2.5c0.1,0.3,0.2,0.6,0.4,0.9c5.7-0.7,11.3,0.4,11.8,0.5C34.5,13.3,33,9.6,30.6,6.7L30.6,6.7L30.6,6.7z"/>
</svg>
