<?xml version="1.0" encoding="utf-8"?>
<!-- Generator: Adobe Illustrator 25.4.3, SVG Export Plug-In . SVG Version: 6.00 Build 0)  -->
<svg version="1.1" id="Layer_1" xmlns="http://www.w3.org/2000/svg" xmlns:xlink="http://www.w3.org/1999/xlink" x="0px" y="0px"
	 viewBox="0 0 281.1 281.1" enable-background="new 0 0 281.1 281.1" xml:space="preserve">
	 <style>
    @media (prefers-color-scheme: dark) {
      path { fill: #ffffff; }
    }
	<style/>
<path fill="#001412" d="M64,280.6c-13,0-23.5-10.5-23.5-23.5v-72.2c0-15.1,9-28.8,22.8-34.9c13.9-6.1,30-3.3,41.1,7
	c9.7,9,22.4,14,35.7,14c26.5,0,49-19.8,52.2-46.1l0-0.2c0.7-5,1-10.2,1-15.3c0-4.2-0.2-8.4-0.7-12.6c-1.4-12.9,7.9-24.5,20.9-26
	c12.9-1.4,24.5,7.9,26,20.9c0.6,5.8,1,11.8,1,17.7c0,7.2-0.5,14.4-1.4,21.4c-6.2,49.8-48.7,87.3-98.9,87.3c-18.8,0-37-5.2-52.6-15
	V257C87.6,270,77,280.6,64,280.6z M64,130.1c-13,0-23.5-10.5-23.5-23.5v-6.3c0-17.5,4.6-34.8,13.4-49.9
	c8.7-15.1,21.4-27.7,36.5-36.5c15.1-8.7,32.4-13.4,49.9-13.4c6.8,0,13.5,0.7,20.1,2c6.6,1.4,13.1,3.4,19.3,6.1
	c6.2,2.7,12.1,6,17.7,9.8c10.7,7.4,13.3,22.1,5.8,32.8c-7.4,10.7-22.1,13.3-32.8,5.8c-2.9-2-6-3.8-9.3-5.2
	c-3.3-1.4-6.7-2.5-10.1-3.2c-3.5-0.7-7-1.1-10.6-1.1c-9.3,0-18.4,2.4-26.3,7c-8,4.6-14.7,11.3-19.3,19.3c-4.6,7.9-7,17-7,26.3v6.3
	C87.6,119.5,77,130.1,64,130.1z"/>
</svg>
