<?xml version="1.0" standalone="no"?>
<!DOCTYPE svg PUBLIC "-//W3C//DTD SVG 20010904//EN"
 "http://www.w3.org/TR/2001/REC-SVG-20010904/DTD/svg10.dtd">
<svg version="1.0" xmlns="http://www.w3.org/2000/svg"
 width="700.000000pt" height="700.000000pt" viewBox="0 0 700.000000 700.000000"
 preserveAspectRatio="xMidYMid meet">
<metadata>
Created by potrace 1.14, written by Peter Selinger 2001-2017
</metadata>
<g transform="translate(0.000000,700.000000) scale(0.100000,-0.100000)"
fill="#000000" stroke="none">
<path d="M4249 6576 c-2 -2 -38 -7 -79 -10 -87 -8 -118 -12 -157 -20 -15 -3
-44 -8 -63 -11 -134 -22 -454 -121 -443 -138 3 -5 2 -7 -4 -4 -13 8 -93 -23
-93 -35 0 -5 -4 -7 -9 -4 -8 5 -176 -76 -229 -111 -28 -19 -36 -24 -112 -69
-25 -15 -57 -37 -71 -48 -14 -12 -41 -32 -59 -46 -153 -114 -427 -384 -474
-469 -5 -9 -12 -18 -15 -21 -14 -11 -102 -141 -153 -225 -49 -81 -82 -147
-148 -287 -22 -47 -23 -48 -69 -49 -25 0 -72 -2 -104 -4 -33 -2 -150 -6 -260
-10 -293 -10 -396 -14 -547 -20 -74 -3 -196 -8 -270 -10 -74 -3 -187 -7 -250
-10 -63 -3 -186 -7 -273 -10 -161 -5 -184 -10 -224 -50 -44 -43 -46 -59 -28
-310 2 -27 6 -90 9 -140 4 -49 9 -112 11 -140 3 -27 7 -93 10 -145 3 -52 8
-111 10 -130 2 -19 7 -87 10 -150 4 -63 8 -126 10 -140 1 -14 3 -47 4 -73 1
-36 4 -46 13 -41 10 6 10 5 1 -7 -6 -8 -10 -27 -8 -44 4 -36 12 -141 21 -285
4 -60 11 -108 18 -112 8 -6 7 -8 -2 -8 -8 0 -11 -10 -8 -27 3 -16 8 -73 11
-128 4 -55 8 -120 11 -145 2 -25 6 -88 9 -140 3 -52 7 -115 10 -140 2 -25 7
-90 10 -145 3 -55 8 -120 10 -145 3 -25 7 -85 10 -135 3 -49 7 -115 10 -145 3
-30 7 -98 11 -150 10 -149 12 -180 18 -255 7 -84 15 -203 21 -305 2 -41 7
-111 11 -155 8 -103 12 -159 19 -270 10 -168 23 -342 29 -387 5 -40 33 -78 69
-93 18 -7 35 -11 39 -9 5 3 314 14 538 18 36 0 68 5 72 11 5 7 8 7 8 0 0 -6
17 -9 38 -8 20 1 138 5 262 8 124 3 295 7 380 10 192 6 434 13 694 20 222 6
243 12 276 75 21 41 20 120 -5 420 -6 74 -11 152 -20 290 -8 122 -12 173 -20
295 -4 55 -9 118 -10 140 -5 85 -16 242 -20 290 -3 28 -7 93 -10 145 -3 52 -8
116 -10 143 -2 26 -1 47 3 47 4 0 30 -21 58 -47 73 -69 104 -96 144 -123 19
-14 37 -28 40 -31 11 -11 138 -99 200 -136 118 -72 163 -94 177 -89 8 3 12 2
9 -3 -6 -8 31 -28 134 -73 76 -34 230 -88 230 -82 0 4 6 2 13 -3 17 -15 223
-65 317 -78 19 -3 51 -7 70 -10 110 -16 173 -20 340 -19 193 0 307 8 394 25
28 6 67 13 86 16 19 3 86 18 149 35 264 69 528 187 740 332 40 28 81 56 89 61
156 102 421 368 556 559 93 133 178 275 180 303 0 11 4 19 8 17 7 -5 65 112
94 190 35 92 93 263 98 286 2 14 11 52 20 85 16 63 20 81 36 181 19 116 25
209 25 384 0 248 -17 390 -70 601 -30 119 -92 309 -106 324 -5 5 -9 14 -9 21
0 12 -94 210 -128 269 -34 60 -96 160 -101 165 -3 3 -22 28 -41 55 -143 206
-380 443 -585 585 -27 19 -54 38 -60 43 -125 93 -408 232 -595 292 -145 46
-436 112 -447 101 -3 -2 -19 0 -36 6 -29 9 -460 22 -468 14z"/>
</g>
</svg>
