<?xml version="1.0" standalone="no"?>
<!DOCTYPE svg PUBLIC "-//W3C//DTD SVG 20010904//EN"
 "http://www.w3.org/TR/2001/REC-SVG-20010904/DTD/svg10.dtd">
<svg version="1.0" xmlns="http://www.w3.org/2000/svg"
 width="1124.000000pt" height="1124.000000pt" viewBox="0 0 1124.000000 1124.000000"
 preserveAspectRatio="xMidYMid meet">
<metadata>
Created by potrace 1.14, written by Peter Selinger 2001-2017
</metadata>
<g transform="translate(0.000000,1124.000000) scale(0.100000,-0.100000)"
fill="#000000" stroke="none">
<path d="M5418 11215 c-2 -2 -48 -5 -103 -9 -55 -4 -113 -8 -130 -10 -31 -4
-125 -16 -160 -21 -74 -11 -103 -15 -125 -20 -22 -4 -61 -12 -113 -21 -10 -2
-26 -5 -35 -8 -9 -3 -28 -7 -42 -10 -48 -10 -225 -57 -250 -66 -14 -6 -34 -12
-45 -14 -36 -8 -187 -62 -310 -111 -143 -58 -362 -165 -494 -242 -162 -95
-467 -304 -506 -347 -6 -6 -35 -31 -65 -55 -112 -91 -348 -322 -440 -431 -30
-36 -61 -73 -70 -82 -34 -37 -177 -228 -206 -273 -10 -16 -21 -32 -24 -35 -13
-12 -80 -121 -80 -129 0 -5 -6 -16 -13 -23 -42 -42 -247 -442 -293 -571 -7
-20 -20 -52 -28 -70 -23 -50 -115 -332 -132 -402 -1 -5 -5 -21 -8 -35 -40
-167 -66 -293 -70 -329 -3 -24 -7 -51 -10 -60 -5 -16 -10 -53 -21 -156 -3 -27
-8 -68 -11 -90 -2 -22 -7 -92 -9 -155 -3 -63 -5 -115 -5 -115 -5 0 -2 -274 3
-282 4 -7 4 -14 -1 -17 -6 -4 -8 -89 -1 -106 1 -3 1 -9 0 -13 -1 -8 12 -92 24
-150 7 -33 44 -133 73 -198 40 -88 129 -200 233 -295 37 -33 124 -94 134 -94
4 0 19 -8 33 -19 27 -18 113 -54 122 -50 3 1 16 -3 29 -11 91 -48 350 -61 499
-25 12 3 32 7 45 10 39 8 181 68 195 82 8 7 18 11 23 7 5 -3 12 2 15 10 3 9
12 16 19 16 8 0 20 6 27 13 7 6 31 25 53 42 35 26 111 101 140 137 104 131
165 261 198 421 7 37 14 115 16 174 8 423 12 503 30 598 18 97 20 107 36 170
9 33 17 65 18 70 1 6 6 16 10 23 5 6 6 12 3 12 -2 0 5 24 16 53 11 28 24 65
29 82 10 34 24 64 88 195 25 52 52 101 59 108 6 7 12 19 12 27 0 7 3 15 8 17
4 2 33 41 64 88 31 47 65 94 75 105 10 11 30 36 44 55 48 64 240 250 314 304
22 17 42 33 45 36 7 9 169 114 215 141 22 12 72 37 110 56 39 18 78 38 87 43
10 6 24 10 32 10 8 0 16 3 18 8 4 8 148 57 288 97 3 1 23 5 45 10 22 4 49 10
60 12 11 2 29 6 40 8 11 3 40 7 65 9 25 3 68 8 95 12 65 7 345 8 410 0 99 -12
121 -15 200 -30 264 -48 519 -154 770 -318 97 -63 159 -99 170 -98 3 1 18 -6
33 -14 78 -44 197 -68 344 -71 117 -2 167 4 265 32 29 8 58 16 65 17 7 1 28 9
47 19 19 9 40 17 48 17 7 0 13 3 13 8 0 4 17 15 38 25 64 30 96 53 190 142 65
61 142 155 142 175 0 5 4 10 8 10 6 0 51 77 57 100 1 3 8 19 15 35 7 17 14 35
15 40 2 6 10 31 18 56 23 69 31 131 31 264 1 140 -5 180 -44 295 -61 183 -196
368 -340 465 -25 16 -47 32 -50 35 -13 13 -121 80 -129 80 -5 0 -11 3 -13 8
-3 8 -92 62 -183 112 -33 18 -70 40 -82 48 -13 8 -23 11 -23 7 0 -3 -13 3 -29
14 -16 12 -32 21 -34 21 -3 0 -43 17 -89 38 -46 22 -114 51 -153 66 -38 15
-84 34 -102 42 -17 8 -37 14 -45 14 -8 0 -18 3 -22 8 -4 4 -11 7 -14 8 -4 0
-16 4 -27 8 -64 25 -100 38 -102 37 -2 0 -8 1 -15 3 -42 12 -104 28 -117 31
-9 2 -27 8 -41 13 -14 5 -28 10 -33 11 -13 1 -50 9 -122 26 -38 8 -81 18 -95
20 -14 3 -36 7 -50 10 -14 2 -38 7 -55 9 -80 12 -122 19 -145 21 -14 1 -52 6
-85 10 -33 4 -85 9 -115 11 -61 5 -508 12 -512 9z"/>
<path d="M8490 8405 c-242 -44 -445 -166 -590 -355 -19 -25 -37 -47 -40 -50
-16 -14 -91 -173 -109 -230 -43 -133 -56 -303 -37 -470 28 -235 24 -721 -8
-955 -3 -22 -8 -62 -11 -90 -4 -27 -9 -58 -11 -68 -3 -10 -8 -34 -10 -55 -6
-45 -12 -77 -14 -77 -1 0 -3 -7 -5 -15 -11 -52 -47 -184 -54 -198 -5 -9 -21
-51 -36 -92 -42 -112 -147 -321 -166 -328 -5 -2 -9 -8 -9 -13 0 -14 -72 -120
-139 -204 -80 -101 -247 -267 -356 -353 -5 -4 -39 -28 -75 -52 -36 -25 -67
-47 -70 -50 -30 -31 -370 -202 -410 -205 -3 -1 -16 -7 -30 -15 -14 -7 -27 -13
-30 -12 -3 1 -30 -6 -60 -15 -30 -9 -61 -16 -67 -16 -7 0 -13 -3 -13 -7 0 -4
-6 -7 -12 -7 -7 0 -38 -5 -68 -12 -87 -18 -136 -26 -235 -38 -110 -13 -476 -4
-536 13 -9 3 -32 7 -50 9 -19 3 -45 7 -59 10 -14 3 -34 8 -45 10 -50 12 -64
15 -125 33 -160 48 -438 171 -491 218 -8 8 -19 14 -23 14 -9 0 -70 43 -74 53
-2 4 -8 7 -13 7 -10 0 -140 99 -170 129 -8 9 -37 34 -63 56 -27 22 -58 49 -70
60 -12 11 -39 31 -59 45 -20 14 -37 28 -37 33 0 4 -4 7 -10 7 -5 0 -33 15 -62
34 -159 101 -385 182 -598 213 -55 8 -318 8 -385 0 -62 -7 -88 -11 -140 -24
-16 -4 -32 -7 -35 -8 -62 -10 -272 -90 -360 -138 -60 -33 -151 -93 -215 -141
-47 -36 -221 -208 -253 -251 -12 -16 -37 -50 -55 -75 -47 -63 -92 -143 -150
-270 -36 -77 -83 -230 -93 -300 -3 -19 -7 -42 -10 -50 -16 -47 -19 -286 -19
-1705 0 -1215 3 -1570 12 -1605 7 -25 15 -56 17 -70 8 -50 63 -178 110 -255
33 -54 53 -80 104 -134 19 -20 37 -41 40 -47 17 -26 164 -128 237 -163 111
-53 171 -73 265 -89 49 -8 268 -7 308 1 17 4 46 9 63 12 18 3 40 10 50 15 10
6 25 10 33 10 29 0 203 91 267 140 32 24 150 140 176 173 30 38 84 129 111
188 47 100 62 154 79 284 4 28 7 546 7 1153 1 606 4 1102 7 1102 4 0 55 -28
115 -63 174 -101 528 -267 568 -267 7 0 16 -3 19 -7 11 -11 107 -42 107 -35 0
4 4 1 8 -5 4 -7 17 -14 27 -16 11 -2 27 -6 35 -9 12 -5 85 -26 110 -33 3 -1
23 -7 45 -13 22 -6 56 -14 75 -17 19 -3 40 -11 47 -17 7 -6 13 -8 13 -5 0 3
17 1 38 -4 20 -5 53 -12 72 -15 19 -2 43 -7 52 -10 20 -6 60 -14 98 -19 14 -2
25 -4 25 -5 0 -1 11 -3 25 -4 37 -5 140 -17 175 -22 99 -13 210 -17 450 -18
240 0 317 3 445 19 19 3 58 7 85 10 28 4 57 8 65 10 8 3 33 7 55 10 45 5 78
12 103 19 9 3 35 7 57 11 22 3 56 10 75 15 19 5 46 11 60 14 14 2 25 5 25 6 0
1 7 3 15 5 19 5 130 34 150 39 29 8 176 59 240 83 36 14 70 26 75 27 6 1 33
12 60 25 28 12 68 30 90 39 63 25 221 104 325 162 52 29 104 58 115 64 114 62
435 296 559 406 196 176 333 317 467 480 57 69 67 81 87 104 6 8 12 20 12 26
0 5 3 10 8 10 4 0 18 17 32 38 24 35 29 42 58 76 6 8 12 19 12 24 0 4 8 17 18
28 16 17 101 150 128 199 6 11 25 43 41 71 17 28 34 61 38 72 3 12 11 22 17
22 6 0 9 3 5 6 -3 3 7 27 21 52 15 26 33 61 41 77 7 17 17 37 21 46 32 63 142
339 154 384 2 6 8 22 14 38 7 15 14 38 17 50 2 12 18 66 35 121 16 54 30 107
30 117 0 11 3 19 8 19 4 0 7 10 8 23 0 12 9 58 18 102 21 92 25 116 30 167 3
21 7 41 9 45 5 9 14 68 31 218 45 385 54 901 21 1295 -10 123 -16 186 -20 210
-17 93 -37 163 -58 205 -11 22 -19 40 -18 40 5 0 -20 52 -39 80 -11 17 -23 37
-27 45 -28 62 -182 216 -273 275 -65 42 -213 110 -260 119 -14 3 -36 8 -50 11
-55 13 -79 16 -185 19 -60 2 -139 -2 -175 -9z"/>
</g>
</svg>
